AdobeSans-Other.ufo
<glyph name="exclam" format="1">
  <advance width="259.865246145"/>
  <unicode hex="0021"/>
  <outline>
    <contour>
      <point x="208.853647178" y="709.0" type="line"/>
      <point x="50.5302231155" y="709.0" type="line"/>
      <point x="73.7920939961" y="228.259396888" type="line"/>
      <point x="185.947852995" y="228.259396888" type="line"/>
    </contour>
    <contour>
      <point x="61.3134091214" y="135.9600989" type="line"/>
      <point x="61.3134091214" y="0.0" type="line"/>
      <point x="198.67438943" y="0.0" type="line"/>
      <point x="198.67438943" y="135.9600989" type="line"/>
    </contour>
  </outline>
</glyph>
<glyph name="numbersign" format="1">
  <advance width="587.880570572"/>
  <unicode hex="0023"/>
  <outline>
    <contour>
      <point x="305.804950155" y="210.294314946" type="line"/>
      <point x="255.377978531" y="0.0" type="line"/>
      <point x="342.248649837" y="0.0" type="line"/>
      <point x="392.675621461" y="210.294314946" type="line"/>
      <point x="500.127929568" y="210.294314946" type="line"/>
      <point x="519.974686386" y="290.68802967" type="line"/>
      <point x="411.770229838" y="290.68802967" type="line"/>
      <point x="442.510665664" y="415.901571319" type="line"/>
      <point x="549.962973772" y="415.901571319" type="line"/>
      <point x="569.220129601" y="496.295286043" type="line"/>
      <point x="461.767821493" y="496.295286043" type="line"/>
      <point x="510.723805289" y="699.664812857" type="line"/>
      <point x="424.015681434" y="699.664812857" type="line"/>
      <point x="375.059697639" y="496.295286043" type="line"/>
      <point x="282.160924525" y="496.295286043" type="line"/>
      <point x="331.116908321" y="699.664812857" type="line"/>
      <point x="244.408784466" y="699.664812857" type="line"/>
      <point x="195.452800671" y="496.295286043" type="line"/>
      <point x="87.5900935529" y="496.295286043" type="line"/>
      <point x="68.2476336161" y="415.901571319" type="line"/>
      <point x="176.03309739" y="415.901571319" type="line"/>
      <point x="145.455209016" y="290.68802967" type="line"/>
      <point x="38.3446503381" y="290.68802967" type="line"/>
      <point x="18.4125894123" y="210.294314946" type="line"/>
      <point x="126.198053187" y="210.294314946" type="line"/>
      <point x="75.771081563" y="0.0" type="line"/>
      <point x="162.479205417" y="0.0" type="line"/>
      <point x="213.068724492" y="210.294314946" type="line"/>
    </contour>
    <contour>
      <point x="325.062105984" y="290.68802967" type="line"/>
      <point x="232.16333287" y="290.68802967" type="line"/>
      <point x="262.903768696" y="415.901571319" type="line"/>
      <point x="355.80254181" y="415.901571319" type="line"/>
    </contour>
  </outline>
</glyph>
<glyph name="dollar" format="1">
  <advance width="590.948200225"/>
  <unicode hex="0024"/>
  <outline>
    <contour>
      <point x="332.242714489" y="587.927978696" type="line"/>
      <point x="372.764469675" y="583.056557595"/>
      <point x="390.748749053" y="551.880092167"/>
      <point x="397.96548952" y="516.580367291" type="curve"/>
      <point x="526.667631157" y="519.125611705" type="line"/>
      <point x="510.587355639" y="605.653538155"/>
      <point x="451.121228419" y="666.134491881"/>
      <point x="332.242714489" y="674.615268766" type="curve"/>
      <point x="332.242714489" y="750.948004945" type="line"/>
      <point x="261.419668639" y="750.948004945" type="line"/>
      <point x="261.419668639" y="675.327422162" type="line"/>
      <point x="104.837561316" y="669.276799082"/>
      <point x="52.2738913036" y="592.710978652"/>
      <point x="52.2738913036" y="504.768828123" type="curve" smooth="yes"/>
      <point x="52.2738913036" y="374.05295047"/>
      <point x="168.768680799" y="336.784486556"/>
      <point x="261.419668639" y="297.980982009" type="curve"/>
      <point x="261.419668639" y="100.686870582" type="line"/>
      <point x="214.677750123" y="105.43299253"/>
      <point x="188.89907156" y="133.561404944"/>
      <point x="174.291462652" y="181.666645291" type="curve"/>
      <point x="41.5820992284" y="177.482791592" type="line"/>
      <point x="59.2861127417" y="78.0337239367"/>
      <point x="126.637425057" y="19.1700092501"/>
      <point x="261.419668639" y="13.4099795224" type="curve"/>
      <point x="261.419668639" y="-69.410399011" type="line"/>
      <point x="332.242714489" y="-69.410399011" type="line"/>
      <point x="332.242714489" y="13.3017543842" type="line"/>
      <point x="470.343775955" y="22.0700243527"/>
      <point x="550.527276473" y="97.1453605949"/>
      <point x="550.527276473" y="206.145864974" type="curve" smooth="yes"/>
      <point x="550.527276473" y="331.904428648"/>
      <point x="422.513329829" y="371.073611912"/>
      <point x="332.242714489" y="410.608557618" type="curve"/>
    </contour>
    <contour>
      <point x="261.419668639" y="433.002911423" type="line"/>
      <point x="225.528688167" y="453.338771058"/>
      <point x="186.93621194" y="473.37729361"/>
      <point x="186.93621194" y="518.340038892" type="curve" smooth="yes"/>
      <point x="186.93621194" y="550.645979934"/>
      <point x="201.017924732" y="582.554587972"/>
      <point x="261.419668639" y="587.927978696" type="curve"/>
    </contour>
    <contour>
      <point x="332.242714489" y="276.421334005" type="line"/>
      <point x="371.75385546" y="254.928773934"/>
      <point x="413.985180985" y="236.329487202"/>
      <point x="413.985180985" y="185.407578738" type="curve" smooth="yes"/>
      <point x="413.985180985" y="142.001236105"/>
      <point x="385.475663024" y="105.410490988"/>
      <point x="332.242714489" y="100.934722141" type="curve"/>
    </contour>
  </outline>
</glyph>
<glyph name="percent" format="1">
  <advance width="819.500732419"/>
  <unicode hex="0025"/>
  <outline>
    <contour>
      <point x="363.864438923" y="528.797581209" type="line"/>
      <point x="363.864438923" y="646.505256928"/>
      <point x="297.832121333" y="711.155985165"/>
      <point x="192.301357972" y="711.155985165" type="curve" smooth="yes"/>
      <point x="87.0556944696" y="711.155985165"/>
      <point x="21.108680987" y="646.505256928"/>
      <point x="21.108680987" y="528.797581209" type="curve" smooth="yes"/>
      <point x="21.108680987" y="413.248273684"/>
      <point x="87.6800370218" y="347.028778242"/>
      <point x="192.301357972" y="347.028778242" type="curve" smooth="yes"/>
      <point x="295.809379779" y="347.028778242"/>
      <point x="363.864438923" y="411.602023124"/>
      <point x="363.864438923" y="527.797581209" type="curve"/>
    </contour>
    <contour>
      <point x="673.186536129" y="706.039345741" type="line"/>
      <point x="558.723170297" y="706.039345741" type="line"/>
      <point x="143.813419167" y="-7.26235830427" type="line"/>
      <point x="258.9207083" y="-7.26235830427" type="line"/>
    </contour>
    <contour>
      <point x="192.301357972" y="420.836657178" type="line"/>
      <point x="151.221982794" y="420.836657178"/>
      <point x="128.515995544" y="462.920121451"/>
      <point x="128.515995544" y="529.153657907" type="curve" smooth="yes"/>
      <point x="128.515995544" y="595.198739122"/>
      <point x="151.455507085" y="637.348106229"/>
      <point x="192.301357972" y="637.348106229" type="curve" smooth="yes"/>
      <point x="233.680160277" y="637.348106229"/>
      <point x="256.371820259" y="595.198739122"/>
      <point x="256.371820259" y="529.153657907" type="curve" smooth="yes"/>
      <point x="256.371820259" y="463.854218617"/>
      <point x="235.029730459" y="420.836657178"/>
      <point x="193.301357972" y="420.836657178" type="curve"/>
    </contour>
    <contour>
      <point x="798.392051432" y="169.056649572" type="line"/>
      <point x="798.392051432" y="287.01217685"/>
      <point x="732.44503795" y="351.415053528"/>
      <point x="627.432898739" y="351.415053528" type="curve" smooth="yes"/>
      <point x="521.668611087" y="351.415053528"/>
      <point x="455.992370194" y="287.01217685"/>
      <point x="455.992370194" y="169.056649572" type="curve" smooth="yes"/>
      <point x="455.992370194" y="53.5073420471"/>
      <point x="522.04510208" y="-12.7121533952"/>
      <point x="627.432898739" y="-12.7121533952" type="curve" smooth="yes"/>
      <point x="730.174444837" y="-12.7121533952"/>
      <point x="798.392051432" y="52.023638938"/>
      <point x="798.392051432" y="168.056649572" type="curve"/>
    </contour>
    <contour>
      <point x="627.432898739" y="61.0957255407" type="line"/>
      <point x="585.587047851" y="61.0957255407"/>
      <point x="563.128912161" y="103.341737265"/>
      <point x="563.128912161" y="169.412726269" type="curve" smooth="yes"/>
      <point x="563.128912161" y="235.705659044"/>
      <point x="585.820572143" y="277.607174592"/>
      <point x="627.432898739" y="277.607174592" type="curve" smooth="yes"/>
      <point x="668.045225334" y="277.607174592"/>
      <point x="690.984736876" y="235.705659044"/>
      <point x="690.984736876" y="169.412726269" type="curve" smooth="yes"/>
      <point x="690.984736876" y="104.275834431"/>
      <point x="669.913419665" y="61.0957255407"/>
      <point x="628.432898739" y="61.0957255407" type="curve"/>
    </contour>
  </outline>
</glyph>
<glyph name="ampersand" format="1">
  <advance width="649.642591994"/>
  <unicode hex="0026"/>
  <outline>
    <contour>
      <point x="623.096710759" y="-0.247851559388" type="line"/>
      <point x="592.206270685" y="33.2196063159"/>
      <point x="561.747298654" y="72.2549496402"/>
      <point x="525.562927744" y="117.571450781" type="curve"/>
      <point x="567.618775526" y="176.744636463"/>
      <point x="604.840392767" y="250.555758938"/>
      <point x="606.705658078" y="354.468956353" type="curve"/>
      <point x="493.132093372" y="354.468956353" type="line"/>
      <point x="489.865682312" y="291.324190787"/>
      <point x="473.302007695" y="240.106055156"/>
      <point x="454.190101906" y="203.806800106" type="curve"/>
      <point x="418.084183454" y="246.080258081"/>
      <point x="379.907625896" y="307.85769839"/>
      <point x="348.290653011" y="357.875676522" type="curve"/>
      <point x="431.843497597" y="410.525699843"/>
      <point x="474.981424685" y="462.684727538"/>
      <point x="474.981424685" y="538.093205787" type="curve" smooth="yes"/>
      <point x="474.981424685" y="631.834710565"/>
      <point x="395.861721172" y="673.752148441"/>
      <point x="300.041202769" y="673.752148441" type="curve" smooth="yes"/>
      <point x="172.666196726" y="673.752148441"/>
      <point x="119.897842027" y="610.131520082"/>
      <point x="119.897842027" y="529.903969308" type="curve" smooth="yes"/>
      <point x="119.897842027" y="468.323983331"/>
      <point x="146.890184964" y="417.455005794"/>
      <point x="180.094679978" y="367.286004802" type="curve"/>
      <point x="91.2299329972" y="314.273630051"/>
      <point x="42.3322849558" y="255.577052193"/>
      <point x="42.3322849558" y="165.685826118" type="curve" smooth="yes"/>
      <point x="42.3322849558" y="57.6464803764"/>
      <point x="108.693639332" y="-14.0"/>
      <point x="243.618711931" y="-14.0" type="curve" smooth="yes"/>
      <point x="332.631672836" y="-14.0"/>
      <point x="387.398890648" y="14.4246677124"/>
      <point x="419.317325758" y="42.9958301112" type="curve"/>
      <point x="422.342993535" y="42.9958301112" type="line"/>
      <point x="436.796413506" y="25.8539349982"/>
      <point x="448.805355198" y="12.976783187"/>
      <point x="460.588833364" y="-0.247851559388" type="curve"/>
    </contour>
    <contour>
      <point x="250.116874088" y="533.293115047" type="line"/>
      <point x="250.116874088" y="576.201918349"/>
      <point x="270.091074217" y="595.907620172"/>
      <point x="302.158441158" y="595.907620172" type="curve" smooth="yes"/>
      <point x="335.859887402" y="595.907620172"/>
      <point x="356.384044201" y="570.229844622"/>
      <point x="356.384044201" y="534.678925269" type="curve" smooth="yes"/>
      <point x="356.384044201" y="494.559180972"/>
      <point x="328.680448208" y="456.025319847"/>
      <point x="291.130813464" y="428.579150623" type="curve"/>
      <point x="264.617579654" y="465.52608398"/>
      <point x="250.116874088" y="494.594382007"/>
      <point x="250.116874088" y="532.293115047" type="curve"/>
    </contour>
    <contour>
      <point x="182.642763922" y="166.917437875" type="line"/>
      <point x="182.642763922" y="217.403839361"/>
      <point x="202.349528947" y="253.823385525"/>
      <point x="241.590176496" y="284.897243014" type="curve"/>
      <point x="274.550331321" y="228.422543787"/>
      <point x="326.481832278" y="159.995171438"/>
      <point x="361.186913756" y="113.797988533" type="curve"/>
      <point x="337.467322737" y="83.8657339982"/>
      <point x="302.975290052" y="67.0144769843"/>
      <point x="268.407621246" y="67.0144769843" type="curve" smooth="yes"/>
      <point x="230.580144791" y="67.0144769843"/>
      <point x="182.642763922" y="99.9933184581"/>
      <point x="182.642763922" y="165.917437875" type="curve"/>
    </contour>
  </outline>
</glyph>
<glyph name="parenleft" format="1">
  <advance width="372.642645059"/>
  <unicode hex="0028"/>
  <outline>
    <contour>
      <point x="360.8753751" y="-116.262923859" type="line"/>
      <point x="322.632491595" y="-74.4409203466"/>
      <point x="289.766518572" y="-32.6685874264"/>
      <point x="266.621052695" y="23.0431436845" type="curve" smooth="yes"/>
      <point x="236.623150297" y="104.581133728"/>
      <point x="226.702192665" y="193.177781632"/>
      <point x="226.702192665" y="290.709826137" type="curve" smooth="yes"/>
      <point x="226.702192665" y="401.922295216"/>
      <point x="239.52639217" y="488.996912723"/>
      <point x="267.03951247" y="558.64608868" type="curve" smooth="yes"/>
      <point x="290.82890165" y="617.238673632"/>
      <point x="323.871749392" y="658.996679284"/>
      <point x="361.371078218" y="698.588018762" type="curve"/>
      <point x="318.79157687" y="766.572946463" type="line"/>
      <point x="256.075445545" y="727.357678489"/>
      <point x="202.20165917" y="681.711301426"/>
      <point x="158.860346985" y="613.29607665" type="curve" smooth="yes"/>
      <point x="109.704983305" y="533.478980657"/>
      <point x="78.8202051782" y="428.672636405"/>
      <point x="78.3245020594" y="291.17687472" type="curve" smooth="yes"/>
      <point x="77.8287989407" y="160.715496312"/>
      <point x="104.510139822" y="55.7928661574"/>
      <point x="153.674756765" y="-26.540286714" type="curve" smooth="yes"/>
      <point x="199.597970925" y="-98.8779703962"/>
      <point x="258.040284493" y="-145.981008019"/>
      <point x="318.295873751" y="-184.247851559" type="curve"/>
    </contour>
  </outline>
</glyph>
<glyph name="parenright" format="1">
  <advance width="372.642645059"/>
  <unicode hex="0029"/>
  <outline>
    <contour>
      <point x="54.3467713086" y="-184.247851559" type="line"/>
      <point x="114.246283868" y="-145.981008019"/>
      <point x="172.688597437" y="-98.8779703962"/>
      <point x="218.967888294" y="-26.540286714" type="curve" smooth="yes"/>
      <point x="267.776428539" y="55.7928661574"/>
      <point x="294.899150226" y="160.715496312"/>
      <point x="294.155595548" y="291.17687472" type="curve" smooth="yes"/>
      <point x="293.65989243" y="428.672636405"/>
      <point x="263.789441571" y="533.478980657"/>
      <point x="213.619750623" y="613.29607665" type="curve" smooth="yes"/>
      <point x="170.084909192" y="681.711301426"/>
      <point x="116.567199514" y="727.357678489"/>
      <point x="53.8510681898" y="766.572946463" type="curve"/>
      <point x="10.9154901433" y="698.588018762" type="line"/>
      <point x="49.1269723648" y="658.996679284"/>
      <point x="81.8137434098" y="617.238673632"/>
      <point x="105.247055892" y="558.64608868" type="curve" smooth="yes"/>
      <point x="133.116252889" y="488.996912723"/>
      <point x="145.940452394" y="401.922295216"/>
      <point x="145.940452394" y="290.709826137" type="curve" smooth="yes"/>
      <point x="145.940452394" y="193.177781632"/>
      <point x="136.37557146" y="104.581133728"/>
      <point x="105.665515667" y="23.0431436845" type="curve" smooth="yes"/>
      <point x="82.7679013489" y="-32.6685874264"/>
      <point x="50.3662301617" y="-74.4409203466"/>
      <point x="11.4111932621" y="-116.262923859" type="curve"/>
    </contour>
  </outline>
</glyph>
<glyph name="comma" format="1">
  <advance width="257.510854488"/>
  <unicode hex="002C"/>
  <outline>
    <contour>
      <point x="32.3558077474" y="-129.03060048" type="line"/>
      <point x="117.740744468" y="-129.03060048" type="line"/>
      <point x="208.589331593" y="140.111960579" type="line"/>
      <point x="62.7966432307" y="140.111960579" type="line"/>
    </contour>
  </outline>
</glyph>
<glyph name="hyphen" format="1">
  <advance width="383.904180683"/>
  <unicode hex="002D"/>
  <outline>
    <contour>
      <point x="58.5852669596" y="306.908048074" type="line"/>
      <point x="58.5852669596" y="190.998054056" type="line"/>
      <point x="325.481461175" y="190.998054056" type="line"/>
      <point x="325.481461175" y="306.908048074" type="line"/>
    </contour>
  </outline>
</glyph>
<glyph name="period" format="1">
  <advance width="257.510854488"/>
  <unicode hex="002E"/>
  <outline>
    <contour>
      <point x="60.3342491647" y="135.9600989" type="line"/>
      <point x="60.3342491647" y="0.0" type="line"/>
      <point x="197.339152775" y="0.0" type="line"/>
      <point x="197.339152775" y="135.9600989" type="line"/>
    </contour>
  </outline>
</glyph>
<glyph name="slash" format="1">
  <advance width="443.251653248"/>
  <unicode hex="002F"/>
  <outline>
    <contour>
      <point x="437.91052499" y="739.0" type="line"/>
      <point x="326.616867862" y="739.0" type="line"/>
      <point x="15.4750164095" y="-12.0" type="line"/>
      <point x="126.931220989" y="-12.0" type="line"/>
    </contour>
  </outline>
</glyph>
<glyph name="zero" format="1">
  <advance width="655.702139694"/>
  <unicode hex="0030"/>
  <outline>
    <contour>
      <point x="33.6810924829" y="346.162547452" type="line"/>
      <point x="33.6810924829" y="99.828812251"/>
      <point x="137.923035373" y="-12.9627517016"/>
      <point x="327.520780933" y="-12.9627517016" type="curve" smooth="yes"/>
      <point x="529.3001115" y="-12.9627517016"/>
      <point x="622.05829551" y="112.353399721"/>
      <point x="622.05829551" y="346.162547452" type="curve" smooth="yes"/>
      <point x="622.05829551" y="580.989890965"/>
      <point x="525.572556612" y="705.0"/>
      <point x="327.520780933" y="705.0" type="curve" smooth="yes"/>
      <point x="131.431337466" y="705.0"/>
      <point x="33.6810924829" y="583.357128695"/>
      <point x="33.6810924829" y="347.162547452" type="curve"/>
    </contour>
    <contour>
      <point x="327.520780933" y="606.315580383" type="line"/>
      <point x="406.905578823" y="606.315580383"/>
      <point x="476.085330944" y="529.997515625"/>
      <point x="476.085330944" y="346.230777544" type="curve" smooth="yes"/>
      <point x="476.085330944" y="155.581247106"/>
      <point x="418.506397283" y="85.7216679159"/>
      <point x="327.520780933" y="85.7216679159" type="curve" smooth="yes"/>
      <point x="239.420013439" y="85.7216679159"/>
      <point x="179.491509596" y="152.157359804"/>
      <point x="179.491509596" y="346.230777544" type="curve" smooth="yes"/>
      <point x="179.491509596" y="532.490052508"/>
      <point x="248.437737427" y="606.315580383"/>
      <point x="326.520780933" y="606.315580383" type="curve"/>
    </contour>
  </outline>
</glyph>
<glyph name="one" format="1">
  <advance width="545.423666413"/>
  <unicode hex="0031"/>
  <outline>
    <contour>
      <point x="61.5798223452" y="570.425310417" type="line"/>
      <point x="112.56261246" y="467.90785752" type="line"/>
      <point x="252.423926224" y="537.619088056" type="line"/>
      <point x="252.423926224" y="0.0" type="line"/>
      <point x="394.996164529" y="0.0" type="line"/>
      <point x="394.996164529" y="698.0" type="line"/>
      <point x="304.033923911" y="698.0" type="line"/>
    </contour>
  </outline>
</glyph>
<glyph name="two" format="1">
  <advance width="648.580605742"/>
  <unicode hex="0032"/>
  <outline>
    <contour>
      <point x="581.747853736" y="110.292163414" type="line"/>
      <point x="235.508011674" y="110.292163414" type="line"/>
      <point x="282.320482109" y="277.427390444"/>
      <point x="578.097790431" y="289.539248001"/>
      <point x="578.097790431" y="518.132169387" type="curve" smooth="yes"/>
      <point x="578.097790431" y="618.734536663"/>
      <point x="496.831469158" y="705.0"/>
      <point x="332.470103578" y="705.0" type="curve" smooth="yes"/>
      <point x="167.370841644" y="705.0"/>
      <point x="97.7204494647" y="613.413451577"/>
      <point x="69.0826302769" y="516.945364949" type="curve"/>
      <point x="218.788403212" y="510.437666585" type="line"/>
      <point x="231.14267809" y="565.470296886"/>
      <point x="261.448765066" y="606.315580383"/>
      <point x="326.805111244" y="606.315580383" type="curve" smooth="yes"/>
      <point x="411.28869791" y="606.315580383"/>
      <point x="431.768749169" y="555.587116614"/>
      <point x="431.768749169" y="513.820266992" type="curve" smooth="yes"/>
      <point x="431.768749169" y="368.269639485"/>
      <point x="119.815531606" y="329.308043784"/>
      <point x="59.4611555413" y="9.0" type="curve"/>
      <point x="72.6536057985" y="0.0" type="line"/>
      <point x="581.747853736" y="0.0" type="line"/>
    </contour>
  </outline>
</glyph>
<glyph name="three" format="1">
  <advance width="650.004912532"/>
  <unicode hex="0033"/>
  <outline>
    <contour>
      <point x="259.447790213" y="310.369711055" type="line"/>
      <point x="373.352092513" y="305.522166267"/>
      <point x="437.542739651" y="267.75186565"/>
      <point x="437.542739651" y="186.399167248" type="curve" smooth="yes"/>
      <point x="437.542739651" y="133.321495047"/>
      <point x="405.398121138" y="86.9179439089"/>
      <point x="323.020716284" y="86.9179439089" type="curve" smooth="yes"/>
      <point x="255.646956389" y="86.9179439089"/>
      <point x="223.709117369" y="135.294371571"/>
      <point x="214.155941489" y="186.127691578" type="curve"/>
      <point x="64.718613885" y="175.284990311" type="line"/>
      <point x="80.7279125632" y="79.4160461576"/>
      <point x="146.065515827" y="-12.4670485828"/>
      <point x="325.268148355" y="-12.4670485828" type="curve" smooth="yes"/>
      <point x="495.452290653" y="-12.4670485828"/>
      <point x="583.871780914" y="61.9895514429"/>
      <point x="583.871780914" y="188.181109748" type="curve" smooth="yes"/>
      <point x="583.871780914" y="301.946118395"/>
      <point x="500.632300193" y="357.932429407"/>
      <point x="406.565154499" y="368.365569972" type="curve"/>
      <point x="406.565154499" y="369.969498229" type="line"/>
      <point x="504.458367484" y="386.44132783"/>
      <point x="555.452861667" y="446.996416244"/>
      <point x="555.452861667" y="534.150325186" type="curve" smooth="yes"/>
      <point x="555.452861667" y="644.92240593"/>
      <point x="460.56261733" y="705.0"/>
      <point x="317.946879187" y="705.0" type="curve" smooth="yes"/>
      <point x="163.610592456" y="705.0"/>
      <point x="93.2563841766" y="619.766512556"/>
      <point x="77.305937795" y="528.402028305" type="curve"/>
      <point x="222.239567483" y="519.752616273" type="line"/>
      <point x="229.063165227" y="566.433426124"/>
      <point x="254.524889438" y="606.315580383"/>
      <point x="321.47714506" y="606.315580383" type="curve" smooth="yes"/>
      <point x="390.2905555" y="606.315580383"/>
      <point x="413.604357278" y="568.743228281"/>
      <point x="413.604357278" y="523.751630402" type="curve" smooth="yes"/>
      <point x="413.604357278" y="464.253096814"/>
      <point x="368.351501776" y="419.741695279"/>
      <point x="259.447790213" y="412.854688444" type="curve"/>
    </contour>
  </outline>
</glyph>
<glyph name="four" format="1">
  <advance width="657.59074832"/>
  <unicode hex="0034"/>
  <outline>
    <contour>
      <point x="55.3584844317" y="254.927153565" type="line"/>
      <point x="55.3584844317" y="162.506820545" type="line"/>
      <point x="369.270696882" y="162.506820545" type="line"/>
      <point x="369.270696882" y="0.0" type="line"/>
      <point x="511.432536177" y="0.0" type="line"/>
      <point x="511.432536177" y="162.506820545" type="line"/>
      <point x="590.628462133" y="162.506820545" type="line"/>
      <point x="590.628462133" y="260.376115111" type="line"/>
      <point x="511.432536177" y="260.376115111" type="line"/>
      <point x="511.432536177" y="698.0" type="line"/>
      <point x="359.554073879" y="698.0" type="line"/>
    </contour>
    <contour>
      <point x="191.200546145" y="260.376115111" type="line"/>
      <point x="287.018950803" y="408.729160456" type="line" smooth="yes"/>
      <point x="315.467181291" y="456.497078871"/>
      <point x="341.887176731" y="501.194199924"/>
      <point x="367.714824435" y="549.509157012" type="curve"/>
      <point x="371.327346454" y="549.509157012" type="line"/>
      <point x="369.860297871" y="503.796336716"/>
      <point x="369.270696882" y="452.828089553"/>
      <point x="369.270696882" y="404.118435493" type="curve" smooth="yes"/>
      <point x="369.270696882" y="260.376115111" type="line"/>
    </contour>
  </outline>
</glyph>
<glyph name="five" format="1">
  <advance width="653.921756206"/>
  <unicode hex="0035"/>
  <outline>
    <contour>
      <point x="89.5235146033" y="317.287858769" type="line"/>
      <point x="217.069016339" y="300.006882398" type="line"/>
      <point x="239.066620986" y="329.215168596"/>
      <point x="268.657514832" y="350.583902008"/>
      <point x="319.774365998" y="350.583902008" type="curve" smooth="yes"/>
      <point x="385.14066689" y="350.583902008"/>
      <point x="438.470208563" y="303.699157292"/>
      <point x="438.470208563" y="216.127206923" type="curve" smooth="yes"/>
      <point x="438.470208563" y="124.64168243"/>
      <point x="398.823507745" y="83.3715042007"/>
      <point x="318.875905143" y="83.3715042007" type="curve" smooth="yes"/>
      <point x="248.773273327" y="83.3715042007"/>
      <point x="220.360027211" y="125.495850039"/>
      <point x="203.450359908" y="185.856517255" type="curve"/>
      <point x="59.6226893028" y="172.211524492" type="line"/>
      <point x="89.702841783" y="64.3452032198"/>
      <point x="169.631109397" y="-12.0"/>
      <point x="322.746426733" y="-12.0" type="curve" smooth="yes"/>
      <point x="494.507621224" y="-12.0"/>
      <point x="584.514149968" y="75.0811015033"/>
      <point x="584.514149968" y="222.612817802" type="curve" smooth="yes"/>
      <point x="584.514149968" y="376.662718878"/>
      <point x="471.324073467" y="448.200091533"/>
      <point x="359.660450292" y="448.200091533" type="curve" smooth="yes"/>
      <point x="301.208712371" y="448.200091533"/>
      <point x="259.344842382" y="431.25417663"/>
      <point x="228.089963632" y="409.466394674" type="curve"/>
      <point x="225.03331406" y="409.466394674" type="line"/>
      <point x="254.11597934" y="586.436225019" type="line"/>
      <point x="528.786084601" y="586.436225019" type="line"/>
      <point x="546.298733265" y="692.0" type="line"/>
      <point x="150.720005293" y="692.0" type="line"/>
    </contour>
  </outline>
</glyph>
<glyph name="six" format="1">
  <advance width="653.565679508"/>
  <unicode hex="0036"/>
  <outline>
    <contour>
      <point x="202.878368728" y="376.255024822" type="line"/>
      <point x="209.125682525" y="549.161595925"/>
      <point x="252.534873091" y="606.315580383"/>
      <point x="335.020001013" y="606.315580383" type="curve" smooth="yes"/>
      <point x="390.823213262" y="606.315580383"/>
      <point x="417.650911146" y="569.584569736"/>
      <point x="434.645882556" y="526.3181697" type="curve"/>
      <point x="577.299425189" y="540.882932361" type="line"/>
      <point x="537.74166139" y="656.182262931"/>
      <point x="450.416366751" y="705.0"/>
      <point x="333.306353904" y="705.0" type="curve" smooth="yes"/>
      <point x="137.060701085" y="705.0"/>
      <point x="56.7118749172" y="547.566917503"/>
      <point x="56.7118749172" y="328.470677245" type="curve" smooth="yes"/>
      <point x="56.7118749172" y="64.7401668762"/>
      <point x="167.900297602" y="-12.0"/>
      <point x="338.808920524" y="-12.0" type="curve" smooth="yes"/>
      <point x="527.973689841" y="-12.0"/>
      <point x="605.469606356" y="103.831323082"/>
      <point x="605.469606356" y="224.616337559" type="curve" smooth="yes"/>
      <point x="605.469606356" y="362.687440901"/>
      <point x="515.763947604" y="443.328736398"/>
      <point x="360.080400317" y="443.328736398" type="curve" smooth="yes"/>
      <point x="284.692445087" y="443.328736398"/>
      <point x="231.444384423" y="412.626206402"/>
      <point x="206.114220278" y="376.255024822" type="curve"/>
    </contour>
    <contour>
      <point x="204.922303019" y="243.034108046" type="line"/>
      <point x="204.922303019" y="294.991020133"/>
      <point x="268.993020633" y="344.644316781"/>
      <point x="332.279615366" y="344.644316781" type="curve" smooth="yes"/>
      <point x="420.444504425" y="344.644316781"/>
      <point x="459.140565093" y="285.293214738"/>
      <point x="459.140565093" y="214.751908429" type="curve" smooth="yes"/>
      <point x="459.140565093" y="152.573419754"/>
      <point x="418.6482909" y="86.6844196175"/>
      <point x="333.525672665" y="86.6844196175" type="curve" smooth="yes"/>
      <point x="242.679940858" y="86.6844196175"/>
      <point x="204.922303019" y="165.096117391"/>
      <point x="204.922303019" y="242.034108046" type="curve"/>
    </contour>
  </outline>
</glyph>
<glyph name="seven" format="1">
  <advance width="563.632692392"/>
  <unicode hex="0037"/>
  <outline>
    <contour>
      <point x="502.300963114" y="692.0" type="line"/>
      <point x="51.7438613463" y="692.0" type="line"/>
      <point x="51.7438613463" y="580.337852109" type="line"/>
      <point x="345.204970215" y="580.337852109" type="line"/>
      <point x="345.204970215" y="576.090420038" type="line"/>
      <point x="141.237480704" y="0.0" type="line"/>
      <point x="301.441759276" y="0.0" type="line"/>
      <point x="502.300963114" y="657.41596044" type="line"/>
    </contour>
  </outline>
</glyph>
<glyph name="eight" format="1">
  <advance width="652.497449415"/>
  <unicode hex="0038"/>
  <outline>
    <contour>
      <point x="201.215621734" y="365.566558221" type="line"/>
      <point x="127.022022876" y="349.160763388"/>
      <point x="53.681552623" y="303.479489301"/>
      <point x="53.681552623" y="187.856254856" type="curve" smooth="yes"/>
      <point x="53.681552623" y="52.2613982576"/>
      <point x="160.062524428" y="-11.8374525484"/>
      <point x="326.563522725" y="-11.8374525484" type="curve" smooth="yes"/>
      <point x="502.282578522" y="-11.8374525484"/>
      <point x="599.405497781" y="57.6595572473"/>
      <point x="599.405497781" y="187.856254856" type="curve" smooth="yes"/>
      <point x="599.405497781" y="301.848273051"/>
      <point x="527.913227053" y="350.11151508"/>
      <point x="451.871428671" y="365.566558221" type="curve"/>
      <point x="451.871428671" y="367.389683501" type="line"/>
      <point x="521.55899759" y="379.172747769"/>
      <point x="582.596467317" y="422.042889854"/>
      <point x="582.596467317" y="523.791908238" type="curve" smooth="yes"/>
      <point x="582.596467317" y="637.473803338"/>
      <point x="473.984050872" y="705.0"/>
      <point x="326.563522725" y="705.0" type="curve" smooth="yes"/>
      <point x="164.261256185" y="705.0"/>
      <point x="70.2970538414" y="628.578632425"/>
      <point x="70.2970538414" y="523.791908238" type="curve" smooth="yes"/>
      <point x="70.2970538414" y="432.711942503"/>
      <point x="123.503102945" y="385.476470458"/>
      <point x="201.215621734" y="367.389683501" type="curve"/>
    </contour>
    <contour>
      <point x="212.706744695" y="507.103878568" type="line"/>
      <point x="212.706744695" y="570.308000469"/>
      <point x="250.951947071" y="606.315580383"/>
      <point x="326.563522725" y="606.315580383" type="curve" smooth="yes"/>
      <point x="402.807681172" y="606.315580383"/>
      <point x="440.024229012" y="568.541638271"/>
      <point x="440.024229012" y="507.459955266" type="curve" smooth="yes"/>
      <point x="440.024229012" y="437.46170315"/>
      <point x="386.154379405" y="408.078244201"/>
      <point x="326.563522725" y="408.078244201" type="curve" smooth="yes"/>
      <point x="243.42682117" y="408.078244201"/>
      <point x="212.706744695" y="443.722335957"/>
      <point x="212.706744695" y="506.103878568" type="curve"/>
    </contour>
    <contour>
      <point x="199.491969737" y="197.186479536" type="line"/>
      <point x="199.491969737" y="270.940093871"/>
      <point x="251.651871468" y="311.729067498"/>
      <point x="326.563522725" y="311.729067498" type="curve" smooth="yes"/>
      <point x="410.658432179" y="311.729067498"/>
      <point x="453.005479679" y="270.772712425"/>
      <point x="453.005479679" y="197.186479536" type="curve" smooth="yes"/>
      <point x="453.005479679" y="123.891982317"/>
      <point x="389.205308463" y="86.8469670691"/>
      <point x="326.563522725" y="86.8469670691" type="curve" smooth="yes"/>
      <point x="258.508355981" y="86.8469670691"/>
      <point x="199.491969737" y="124.028202491"/>
      <point x="199.491969737" y="196.186479536" type="curve"/>
    </contour>
  </outline>
</glyph>
<glyph name="nine" format="1">
  <advance width="654.989986299"/>
  <unicode hex="0039"/>
  <outline>
    <contour>
      <point x="454.81433543" y="316.744975178" type="line"/>
      <point x="446.684500034" y="156.488311091"/>
      <point x="401.189827852" y="86.4508953261"/>
      <point x="320.485680416" y="86.4508953261" type="curve" smooth="yes"/>
      <point x="259.030064611" y="86.4508953261"/>
      <point x="231.041671275" y="126.55996141"/>
      <point x="211.53870375" y="177.941694861" type="curve"/>
      <point x="67.2389105563" y="163.251633047" type="line"/>
      <point x="106.015929117" y="49.5918540526"/>
      <point x="186.101791915" y="-12.0"/>
      <point x="317.269409616" y="-12.0" type="curve" smooth="yes"/>
      <point x="548.802017124" y="-12.0"/>
      <point x="600.376900985" y="185.265325339"/>
      <point x="600.376900985" y="372.142560045" type="curve" smooth="yes"/>
      <point x="600.376900985" y="599.873284771"/>
      <point x="497.180278675" y="705.0"/>
      <point x="318.14828972" y="705.0" type="curve" smooth="yes"/>
      <point x="119.855537007" y="705.0"/>
      <point x="51.9752462433" y="586.982371427"/>
      <point x="51.9752462433" y="471.156164642" type="curve" smooth="yes"/>
      <point x="51.9752462433" y="367.835789554"/>
      <point x="118.399161873" y="249.671263602"/>
      <point x="296.196830826" y="249.671263602" type="curve" smooth="yes"/>
      <point x="384.167229256" y="249.671263602"/>
      <point x="434.347832838" y="290.434757156"/>
      <point x="451.578483881" y="316.744975178" type="curve"/>
    </contour>
    <contour>
      <point x="451.895700292" y="445.858199814" type="line"/>
      <point x="451.895700292" y="397.075676931"/>
      <point x="391.544785578" y="348.355683219"/>
      <point x="324.809160536" y="348.355683219" type="curve" smooth="yes"/>
      <point x="233.381140162" y="348.355683219"/>
      <point x="198.552139065" y="412.032959154"/>
      <point x="198.552139065" y="478.827304538" type="curve" smooth="yes"/>
      <point x="198.552139065" y="549.152427393"/>
      <point x="239.290779332" y="606.315580383"/>
      <point x="323.207026539" y="606.315580383" type="curve" smooth="yes"/>
      <point x="407.405307059" y="606.315580383"/>
      <point x="451.895700292" y="541.609795484"/>
      <point x="451.895700292" y="446.858199814" type="curve"/>
    </contour>
  </outline>
</glyph>
<glyph name="colon" format="1">
  <advance width="257.510854488"/>
  <unicode hex="003A"/>
  <outline>
    <contour>
      <point x="60.3342491647" y="492.89600989" type="line"/>
      <point x="60.3342491647" y="356.93591099" type="line"/>
      <point x="197.339152775" y="356.93591099" type="line"/>
      <point x="197.339152775" y="492.89600989" type="line"/>
    </contour>
    <contour>
      <point x="60.3342491647" y="135.9600989" type="line"/>
      <point x="60.3342491647" y="0.0" type="line"/>
      <point x="197.339152775" y="0.0" type="line"/>
      <point x="197.339152775" y="135.9600989" type="line"/>
    </contour>
  </outline>
</glyph>
<glyph name="semicolon" format="1">
  <advance width="257.510854488"/>
  <unicode hex="003B"/>
  <outline>
    <contour>
      <point x="61.0778038429" y="492.89600989" type="line"/>
      <point x="61.0778038429" y="356.93591099" type="line"/>
      <point x="198.082707453" y="356.93591099" type="line"/>
      <point x="198.082707453" y="492.89600989" type="line"/>
    </contour>
    <contour>
      <point x="32.3558077474" y="-129.03060048" type="line"/>
      <point x="117.740744468" y="-129.03060048" type="line"/>
      <point x="208.589331593" y="135.9600989" type="line"/>
      <point x="62.7966432307" y="135.9600989" type="line"/>
    </contour>
  </outline>
</glyph>
<glyph name="question" format="1">
  <advance width="525.03722512"/>
  <unicode hex="003F"/>
  <outline>
    <contour>
      <point x="312.180789721" y="213.908103845" type="line"/>
      <point x="310.920938152" y="267.726056411"/>
      <point x="337.816708699" y="316.461394036"/>
      <point x="397.6904069" y="366.718862576" type="curve" smooth="yes"/>
      <point x="459.052352014" y="418.660671747"/>
      <point x="494.460646022" y="466.999141432"/>
      <point x="494.460646022" y="549.137382885" type="curve" smooth="yes"/>
      <point x="494.460646022" y="638.847233218"/>
      <point x="426.763051498" y="718.292501122"/>
      <point x="266.763713259" y="718.292501122" type="curve" smooth="yes"/>
      <point x="119.33525695" y="718.292501122"/>
      <point x="43.9586695349" y="644.343865296"/>
      <point x="16.5582561451" y="532.881937434" type="curve"/>
      <point x="162.040831609" y="522.605256626" type="line"/>
      <point x="174.598841482" y="582.221968099"/>
      <point x="205.724420471" y="623.767283243"/>
      <point x="263.182592522" y="623.767283243" type="curve" smooth="yes"/>
      <point x="314.916735702" y="623.767283243"/>
      <point x="348.650228909" y="601.739164502"/>
      <point x="348.650228909" y="541.319695328" type="curve" smooth="yes"/>
      <point x="348.650228909" y="494.87986137"/>
      <point x="315.657167237" y="463.655646113"/>
      <point x="270.20620579" y="410.926519221" type="curve" smooth="yes"/>
      <point x="204.069315739" y="333.068578851"/>
      <point x="189.739276128" y="274.915738701"/>
      <point x="195.696294324" y="213.908103845" type="curve"/>
    </contour>
    <contour>
      <point x="186.288346277" y="135.9600989" type="line"/>
      <point x="186.288346277" y="0.0" type="line"/>
      <point x="323.130702436" y="0.0" type="line"/>
      <point x="323.130702436" y="135.9600989" type="line"/>
    </contour>
  </outline>
</glyph>
<glyph name="at" format="1">
  <advance width="743.926671722"/>
  <unicode hex="0040"/>
  <outline>
    <contour>
      <point x="533.221539528" y="140.066254207" type="line"/>
      <point x="486.592745283" y="121.441088465"/>
      <point x="433.489435225" y="108.61479695"/>
      <point x="367.895971312" y="108.61479695" type="curve" smooth="yes"/>
      <point x="248.694616529" y="108.61479695"/>
      <point x="133.757402458" y="170.484158937"/>
      <point x="133.757402458" y="316.823658279" type="curve" smooth="yes"/>
      <point x="133.757402458" y="395.21402268"/>
      <point x="165.034845253" y="461.255727436"/>
      <point x="216.769241596" y="508.753982037" type="curve" smooth="yes"/>
      <point x="268.232865348" y="556.1440115"/>
      <point x="337.598944972" y="583.409050584"/>
      <point x="416.714605765" y="583.409050584" type="curve" smooth="yes"/>
      <point x="488.360162455" y="583.409050584"/>
      <point x="539.716695829" y="567.376765577"/>
      <point x="574.111978775" y="540.556276329" type="curve" smooth="yes"/>
      <point x="609.443503871" y="513.164634879"/>
      <point x="625.739704227" y="473.988910706"/>
      <point x="625.739704227" y="427.258857311" type="curve" smooth="yes"/>
      <point x="625.739704227" y="380.470487413"/>
      <point x="609.216724139" y="336.144862307"/>
      <point x="583.018192446" y="299.36819384" type="curve" smooth="yes"/>
      <point x="561.754950417" y="269.418170411"/>
      <point x="536.576060009" y="254.657428208"/>
      <point x="518.32415849" y="255.013504906" type="curve" smooth="yes"/>
      <point x="495.219524667" y="254.657428208"/>
      <point x="490.755827388" y="270.376618322"/>
      <point x="502.187772658" y="312.779600282" type="curve" smooth="yes"/>
      <point x="555.053148684" y="508.080581837" type="line"/>
      <point x="465.580815177" y="508.080581837" type="line"/>
      <point x="459.799059713" y="484.062204609" type="line"/>
      <point x="457.565535422" y="484.062204609" type="line"/>
      <point x="446.12386163" y="502.059035577"/>
      <point x="425.250242567" y="509.507635374"/>
      <point x="394.943962964" y="509.507635374" type="curve" smooth="yes"/>
      <point x="353.987915838" y="509.507635374"/>
      <point x="311.196028151" y="491.864020846"/>
      <point x="271.13228609" y="449.446708822" type="curve" smooth="yes"/>
      <point x="227.161433641" y="403.421473525"/>
      <point x="207.868275815" y="350.221690767"/>
      <point x="207.868275815" y="289.842107065" type="curve" smooth="yes"/>
      <point x="207.868275815" y="227.727221918"/>
      <point x="242.599337468" y="190.616080752"/>
      <point x="292.835115492" y="190.616080752" type="curve" smooth="yes"/>
      <point x="343.183295115" y="190.616080752"/>
      <point x="391.100481955" y="228.903618582"/>
      <point x="409.349214443" y="264.31913355" type="curve"/>
      <point x="412.476840854" y="264.31913355" type="line"/>
      <point x="408.951530713" y="245.132179583"/>
      <point x="415.165709501" y="226.023001957"/>
      <point x="425.339597462" y="213.678688053" type="curve" smooth="yes"/>
      <point x="442.215306567" y="196.489406827"/>
      <point x="466.323698191" y="190.616080752"/>
      <point x="497.482472882" y="190.616080752" type="curve" smooth="yes"/>
      <point x="540.736517419" y="190.616080752"/>
      <point x="589.320493648" y="205.646107263"/>
      <point x="635.776004489" y="248.908455372" type="curve" smooth="yes"/>
      <point x="684.225779028" y="293.535471144"/>
      <point x="711.295787594" y="355.546729899"/>
      <point x="711.295787594" y="427.232949522" type="curve" smooth="yes"/>
      <point x="711.295787594" y="545.380122472"/>
      <point x="630.178340768" y="654.058561326"/>
      <point x="424.767970828" y="654.058561326" type="curve" smooth="yes"/>
      <point x="185.48051158" y="654.058561326"/>
      <point x="35.7004861966" y="503.454616273"/>
      <point x="35.7004861966" y="324.721995427" type="curve" smooth="yes"/>
      <point x="35.7004861966" y="152.707720795"/>
      <point x="159.922920526" y="38.2131377673"/>
      <point x="348.133326103" y="38.2131377673" type="curve" smooth="yes"/>
      <point x="430.185050399" y="38.2131377673"/>
      <point x="520.760647563" y="54.3826669941"/>
      <point x="571.424249338" y="87.9518984352" type="curve"/>
    </contour>
    <contour>
      <point x="310.000823433" y="312.605348603" type="line"/>
      <point x="310.000823433" y="347.600382516"/>
      <point x="326.968999866" y="385.502896126"/>
      <point x="349.729443491" y="411.895503056" type="curve"/>
      <point x="370.879805865" y="437.888631995"/>
      <point x="391.913167065" y="447.183515318"/>
      <point x="413.90407946" y="447.183515318" type="curve" smooth="yes"/>
      <point x="434.587630467" y="447.183515318"/>
      <point x="443.783484176" y="436.352933831"/>
      <point x="443.783484176" y="428.077802506" type="curve" smooth="yes"/>
      <point x="443.783484176" y="419.88863479"/>
      <point x="433.611150463" y="381.858267749"/>
      <point x="423.798233728" y="355.997057989" type="curve" smooth="yes"/>
      <point x="410.533197439" y="320.497909467"/>
      <point x="369.773780656" y="275.350112395"/>
      <point x="337.878014401" y="275.350112395" type="curve" smooth="yes"/>
      <point x="315.962018091" y="275.350112395"/>
      <point x="310.000823433" y="289.732627085"/>
      <point x="310.000823433" y="311.605348603" type="curve"/>
    </contour>
  </outline>
</glyph>
<glyph name="A" format="1">
  <advance width="611.619628555"/>
  <unicode hex="0041"/>
  <outline>
    <contour>
      <point x="403.554356198" y="184.876878389" type="line"/>
      <point x="446.276992383" y="0.0" type="line"/>
      <point x="604.516191995" y="0.0" type="line"/>
      <point x="407.465552221" y="709.0" type="line"/>
      <point x="203.991528882" y="709.0" type="line"/>
      <point x="9.85272474382" y="0.0" type="line"/>
      <point x="167.877801338" y="0.0" type="line"/>
      <point x="207.86272986" y="184.876878389" type="line"/>
    </contour>
    <contour>
      <point x="380.579732288" y="285.316193194" type="line"/>
      <point x="230.806371975" y="285.316193194" type="line"/>
      <point x="267.579927022" y="453.16744938" type="line" smooth="yes"/>
      <point x="278.915700139" y="504.52747552"/>
      <point x="290.77517141" y="557.413946561"/>
      <point x="301.381717117" y="621.399803533" type="curve"/>
      <point x="308.964392101" y="621.399803533" type="line"/>
      <point x="319.967009551" y="557.444928355"/>
      <point x="332.21747856" y="507.050640676"/>
      <point x="343.897747853" y="453.742190103" type="curve" smooth="yes"/>
    </contour>
  </outline>
</glyph>
<glyph name="B" format="1">
  <advance width="625.211350987"/>
  <unicode hex="0042"/>
  <outline>
    <contour>
      <point x="415.824760624" y="378.002327258" type="line"/>
      <point x="508.529872559" y="386.490629113"/>
      <point x="562.69610082" y="438.043860765"/>
      <point x="562.69610082" y="534.873566087" type="curve" smooth="yes"/>
      <point x="562.69610082" y="665.097969209"/>
      <point x="469.332598504" y="709.0"/>
      <point x="283.79544062" y="709.0" type="curve" smooth="yes"/>
      <point x="58.8221252716" y="709.0" type="line"/>
      <point x="58.8221252716" y="0.0" type="line"/>
      <point x="315.221949663" y="0.0" type="line" smooth="yes"/>
      <point x="477.31358595" y="0.0"/>
      <point x="595.606902882" y="46.8454631329"/>
      <point x="595.606902882" y="196.255366333" type="curve" smooth="yes"/>
      <point x="595.606902882" y="300.145478201"/>
      <point x="540.880575532" y="361.060108794"/>
      <point x="415.824760624" y="374.233524291" type="curve"/>
    </contour>
    <contour>
      <point x="442.034608806" y="206.104455173" type="curve" smooth="yes"/>
      <point x="442.034608806" y="126.020994524"/>
      <point x="387.297197732" y="100.439314805"/>
      <point x="297.293827315" y="100.439314805" type="curve" smooth="yes"/>
      <point x="208.868393935" y="100.439314805" type="line"/>
      <point x="208.868393935" y="318.457695943" type="line"/>
      <point x="300.529916081" y="318.457695943" type="line" smooth="yes"/>
      <point x="394.932979657" y="318.457695943"/>
      <point x="442.034608806" y="275.280273265"/>
    </contour>
    <contour>
      <point x="413.861028951" y="516.297940813" type="curve" smooth="yes"/>
      <point x="413.861028951" y="453.670351098"/>
      <point x="380.494212837" y="419.144862307"/>
      <point x="297.690558558" y="419.144862307" type="curve" smooth="yes"/>
      <point x="208.868393935" y="419.144862307" type="line"/>
      <point x="208.868393935" y="608.560685195" type="line"/>
      <point x="296.069556286" y="608.560685195" type="line" smooth="yes"/>
      <point x="373.92342518" y="608.560685195"/>
      <point x="413.861028951" y="579.245617392"/>
    </contour>
  </outline>
</glyph>
<glyph name="C" format="1">
  <advance width="651.6811924"/>
  <unicode hex="0043"/>
  <outline>
    <contour>
      <point x="468.376522593" y="233.491188122" type="line"/>
      <point x="456.867703288" y="155.136254253"/>
      <point x="415.743210848" y="85.7953915026"/>
      <point x="339.321153636" y="85.7953915026" type="curve" smooth="yes"/>
      <point x="259.640395402" y="85.7953915026"/>
      <point x="189.948645416" y="151.494444521"/>
      <point x="189.948645416" y="353.287846605" type="curve" smooth="yes"/>
      <point x="189.948645416" y="551.486858454"/>
      <point x="255.511512493" y="622.971084206"/>
      <point x="340.834463768" y="622.971084206" type="curve" smooth="yes"/>
      <point x="410.888866557" y="622.971084206"/>
      <point x="445.173106727" y="575.037050371"/>
      <point x="462.483977517" y="488.039615513" type="curve"/>
      <point x="612.561708666" y="499.999555169" type="line"/>
      <point x="584.499707222" y="657.242903388"/>
      <point x="475.03080134" y="723.0"/>
      <point x="341.794468723" y="723.0" type="curve" smooth="yes"/>
      <point x="256.150766" y="723.0"/>
      <point x="184.417938198" y="694.710541408"/>
      <point x="130.218647786" y="641.252862394" type="curve" smooth="yes"/>
      <point x="69.4730971436" y="579.722238235"/>
      <point x="36.0202746424" y="484.363594267"/>
      <point x="36.0202746424" y="358.916843674" type="curve" smooth="yes"/>
      <point x="36.0202746424" y="212.581001635"/>
      <point x="73.0997669542" y="120.341630328"/>
      <point x="131.245088574" y="63.3653931315" type="curve" smooth="yes"/>
      <point x="185.633016498" y="9.32001810218"/>
      <point x="263.364232314" y="-14.0"/>
      <point x="340.870759579" y="-14.0" type="curve" smooth="yes"/>
      <point x="468.961739003" y="-14.0"/>
      <point x="588.755075523" y="67.0553461995"/>
      <point x="620.416585956" y="217.398788061" type="curve"/>
    </contour>
  </outline>
</glyph>
<glyph name="D" format="1">
  <advance width="650.208520358"/>
  <unicode hex="0044"/>
  <outline>
    <contour>
      <point x="618.461166087" y="358.608582774" type="curve" smooth="yes"/>
      <point x="618.461166087" y="604.443989178"/>
      <point x="514.37041502" y="709.0"/>
      <point x="295.030088648" y="709.0" type="curve" smooth="yes"/>
      <point x="58.8221252716" y="709.0" type="line"/>
      <point x="58.8221252716" y="0.0" type="line"/>
      <point x="298.655505425" y="0.0" type="line" smooth="yes"/>
      <point x="533.406827137" y="0.0"/>
      <point x="618.461166087" y="123.269546548"/>
    </contour>
    <contour>
      <point x="464.695342765" y="354.484122598" type="curve" smooth="yes"/>
      <point x="464.695342765" y="162.507417409"/>
      <point x="403.819535428" y="100.439314805"/>
      <point x="292.936129575" y="100.439314805" type="curve" smooth="yes"/>
      <point x="208.868393935" y="100.439314805" type="line"/>
      <point x="208.868393935" y="608.560685195" type="line"/>
      <point x="291.353035101" y="608.560685195" type="line" smooth="yes"/>
      <point x="419.929545299" y="608.560685195"/>
      <point x="464.695342765" y="513.006757524"/>
    </contour>
  </outline>
</glyph>
<glyph name="E" format="1">
  <advance width="520.67953513"/>
  <unicode hex="0045"/>
  <outline>
    <contour>
      <point x="208.868393935" y="398.544301322" type="line"/>
      <point x="208.868393935" y="608.560685195" type="line"/>
      <point x="473.585364984" y="608.560685195" type="line"/>
      <point x="473.585364984" y="709.0" type="line"/>
      <point x="58.8221252716" y="709.0" type="line"/>
      <point x="58.8221252716" y="0.0" type="line"/>
      <point x="480.603151474" y="0.0" type="line"/>
      <point x="480.603151474" y="100.439314805" type="line"/>
      <point x="208.868393935" y="100.439314805" type="line"/>
      <point x="208.868393935" y="297.942439065" type="line"/>
      <point x="406.521106343" y="297.942439065" type="line"/>
      <point x="406.521106343" y="398.544301322" type="line"/>
    </contour>
  </outline>
</glyph>
<glyph name="F" format="1">
  <advance width="503.654766196"/>
  <unicode hex="0046"/>
  <outline>
    <contour>
      <point x="208.868393935" y="0.0" type="line"/>
      <point x="208.868393935" y="310.726207241" type="line"/>
      <point x="405.669326527" y="310.726207241" type="line"/>
      <point x="405.669326527" y="411.413373605" type="line"/>
      <point x="208.868393935" y="411.413373605" type="line"/>
      <point x="208.868393935" y="608.560685195" type="line"/>
      <point x="467.222065831" y="608.560685195" type="line"/>
      <point x="467.222065831" y="709.0" type="line"/>
      <point x="58.8221252716" y="709.0" type="line"/>
      <point x="58.8221252716" y="0.0" type="line"/>
    </contour>
  </outline>
</glyph>
<glyph name="G" format="1">
  <advance width="655.128362482"/>
  <unicode hex="0047"/>
  <outline>
    <contour>
      <point x="608.301804122" y="359.689091731" type="line"/>
      <point x="356.885314536" y="359.689091731" type="line"/>
      <point x="356.885314536" y="259.001925366" type="line"/>
      <point x="465.485294549" y="259.001925366" type="line"/>
      <point x="465.485294549" y="115.275679977" type="line"/>
      <point x="442.463827408" y="99.7282933737"/>
      <point x="399.51089567" y="85.7953915026"/>
      <point x="346.040708295" y="85.7953915026" type="curve" smooth="yes"/>
      <point x="249.469428233" y="85.7953915026"/>
      <point x="189.948645416" y="171.161446771"/>
      <point x="189.948645416" y="355.07097684" type="curve" smooth="yes"/>
      <point x="189.948645416" y="549.625432878"/>
      <point x="270.286150152" y="623.204608497"/>
      <point x="344.930810634" y="623.204608497" type="curve" smooth="yes"/>
      <point x="397.891678603" y="623.204608497"/>
      <point x="425.765047298" y="592.02725655"/>
      <point x="451.925183609" y="507.293790016" type="curve"/>
      <point x="602.911344147" y="527.609028595" type="line"/>
      <point x="556.657551277" y="650.984374792"/>
      <point x="464.278529157" y="723.0"/>
      <point x="343.591628475" y="723.0" type="curve" smooth="yes"/>
      <point x="156.550763461" y="723.0"/>
      <point x="36.0202746424" y="612.346917354"/>
      <point x="36.0202746424" y="358.970746499" type="curve" smooth="yes"/>
      <point x="36.0202746424" y="126.238029119"/>
      <point x="125.828116093" y="-14.0"/>
      <point x="341.963704963" y="-14.0" type="curve" smooth="yes"/>
      <point x="464.906647302" y="-14.0"/>
      <point x="561.403379607" y="38.487276669"/>
      <point x="608.301804122" y="87.242979418" type="curve"/>
    </contour>
  </outline>
</glyph>
<glyph name="H" format="1">
  <advance width="669.144157952"/>
  <unicode hex="0048"/>
  <outline>
    <contour>
      <point x="610.56988424" y="709.0" type="line"/>
      <point x="460.523615577" y="709.0" type="line"/>
      <point x="460.523615577" y="416.643072161" type="line"/>
      <point x="208.868393935" y="416.643072161" type="line"/>
      <point x="208.868393935" y="709.0" type="line"/>
      <point x="58.8221252716" y="709.0" type="line"/>
      <point x="58.8221252716" y="0.0" type="line"/>
      <point x="208.868393935" y="0.0" type="line"/>
      <point x="208.868393935" y="316.041209904" type="line"/>
      <point x="460.523615577" y="316.041209904" type="line"/>
      <point x="460.523615577" y="0.0" type="line"/>
      <point x="610.56988424" y="0.0" type="line"/>
    </contour>
  </outline>
</glyph>
<glyph name="I" format="1">
  <advance width="275.364102507"/>
  <unicode hex="0049"/>
  <outline>
    <contour>
      <point x="212.581259806" y="0.0" type="line"/>
      <point x="212.581259806" y="709.0" type="line"/>
      <point x="62.5349911422" y="709.0" type="line"/>
      <point x="62.5349911422" y="0.0" type="line"/>
    </contour>
  </outline>
</glyph>
<glyph name="J" format="1">
  <advance width="397.630126364"/>
  <unicode hex="004A"/>
  <outline>
    <contour>
      <point x="15.4357690376" y="17.4655259308" type="line"/>
      <point x="53.5742353838" y="-2.00932482102"/>
      <point x="91.5943285812" y="-14.0"/>
      <point x="148.228780009" y="-14.0" type="curve" smooth="yes"/>
      <point x="272.958948591" y="-14.0"/>
      <point x="341.036211367" y="61.7234575658"/>
      <point x="341.036211367" y="223.938913425" type="curve" smooth="yes"/>
      <point x="341.036211367" y="709.0" type="line"/>
      <point x="190.742091144" y="709.0" type="line"/>
      <point x="190.742091144" y="218.329497106" type="line" smooth="yes"/>
      <point x="190.742091144" y="119.161889787"/>
      <point x="158.03408541" y="86.1914632456"/>
      <point x="114.983866838" y="86.1914632456" type="curve" smooth="yes"/>
      <point x="84.0434715722" y="86.1914632456"/>
      <point x="58.611842636" y="100.662081765"/>
      <point x="37.2715443" y="120.472415442" type="curve"/>
    </contour>
  </outline>
</glyph>
<glyph name="K" format="1">
  <advance width="593.66970608"/>
  <unicode hex="004B"/>
  <outline>
    <contour>
      <point x="207.17916157" y="375.970606024" type="line"/>
      <point x="208.620542376" y="429.185338203"/>
      <point x="208.868393935" y="474.215169451"/>
      <point x="208.868393935" y="532.692093449" type="curve" smooth="yes"/>
      <point x="208.868393935" y="709.0" type="line"/>
      <point x="58.8221252716" y="709.0" type="line"/>
      <point x="58.8221252716" y="0.0" type="line"/>
      <point x="208.868393935" y="0.0" type="line"/>
      <point x="208.868393935" y="201.728478728" type="line"/>
      <point x="273.966907028" y="293.531492737" type="line"/>
      <point x="416.363845743" y="0.0" type="line"/>
      <point x="587.802237375" y="0.0" type="line"/>
      <point x="363.568115217" y="407.937975876" type="line"/>
      <point x="560.209602244" y="709.0" type="line"/>
      <point x="393.961394145" y="709.0" type="line"/>
      <point x="295.375737972" y="532.258773408" type="line" smooth="yes"/>
      <point x="263.850799935" y="473.106944312"/>
      <point x="237.650310292" y="430.857496553"/>
      <point x="210.19306935" y="375.970606024" type="curve"/>
    </contour>
  </outline>
</glyph>
<glyph name="L" format="1">
  <advance width="493.353186525"/>
  <unicode hex="004C"/>
  <outline>
    <contour>
      <point x="473.375764389" y="100.439314805" type="line"/>
      <point x="208.868393935" y="100.439314805" type="line"/>
      <point x="208.868393935" y="709.0" type="line"/>
      <point x="58.8221252716" y="709.0" type="line"/>
      <point x="58.8221252716" y="0.0" type="line"/>
      <point x="473.375764389" y="0.0" type="line"/>
    </contour>
  </outline>
</glyph>
<glyph name="M" format="1">
  <advance width="913.645263012"/>
  <unicode hex="004D"/>
  <outline>
    <contour>
      <point x="455.869790186" y="161.380426488" type="line"/>
      <point x="426.451177077" y="280.337265207"/>
      <point x="376.206948567" y="436.666155072"/>
      <point x="288.722952609" y="709.0" type="curve"/>
      <point x="58.8221252716" y="709.0" type="line"/>
      <point x="58.8221252716" y="0.0" type="line"/>
      <point x="195.509100663" y="0.0" type="line"/>
      <point x="195.509100663" y="290.148780975"/>
      <point x="194.796947268" y="486.064869234"/>
      <point x="191.20435952" y="596.043739668" type="curve"/>
      <point x="195.357653709" y="596.043739668" type="line"/>
      <point x="227.85840469" y="486.227416686"/>
      <point x="292.239030883" y="290.200356541"/>
      <point x="386.75442336" y="0.0" type="curve"/>
      <point x="527.201607288" y="0.0" type="line"/>
      <point x="626.609669375" y="297.462657106"/>
      <point x="686.359804784" y="486.327048062"/>
      <point x="718.4901518" y="596.043739668" type="curve"/>
      <point x="722.643445989" y="596.043739668" type="line"/>
      <point x="720.119088334" y="485.88292051"/>
      <point x="719.050858241" y="290.146034228"/>
      <point x="719.050858241" y="0.0" type="curve"/>
      <point x="855.792155946" y="0.0" type="line"/>
      <point x="855.792155946" y="709.0" type="line"/>
      <point x="625.64347705" y="709.0" type="line"/>
      <point x="537.928703547" y="438.620313011"/>
      <point x="488.257002012" y="280.818641058"/>
      <point x="458.744491032" y="161.380426488" type="curve"/>
    </contour>
  </outline>
</glyph>
<glyph name="N" format="1">
  <advance width="667.861925243"/>
  <unicode hex="004E"/>
  <outline>
    <contour>
      <point x="475.047370962" y="167.83564777" type="line"/>
      <point x="444.709824964" y="259.504539206"/>
      <point x="373.043563947" y="443.340233515"/>
      <point x="261.779496071" y="709.0" type="curve"/>
      <point x="58.8221252716" y="709.0" type="line"/>
      <point x="58.8221252716" y="0.0" type="line"/>
      <point x="195.742624954" y="0.0" type="line"/>
      <point x="195.742624954" y="266.909831793"/>
      <point x="192.660487082" y="449.486867031"/>
      <point x="188.558528448" y="541.16435223" type="curve"/>
      <point x="193.273009102" y="541.16435223" type="line"/>
      <point x="223.137773011" y="450.324319579"/>
      <point x="295.143456199" y="268.627718693"/>
      <point x="406.64910913" y="0.0" type="curve"/>
      <point x="608.683723274" y="0.0" type="line"/>
      <point x="608.683723274" y="709.0" type="line"/>
      <point x="471.956752837" y="709.0" type="line"/>
      <point x="471.956752837" y="443.981410071"/>
      <point x="474.682814012" y="260.612764345"/>
      <point x="479.690874775" y="167.83564777" type="curve"/>
    </contour>
  </outline>
</glyph>
<glyph name="O" format="1">
  <advance width="693.043867745"/>
  <unicode hex="004F"/>
  <outline>
    <contour>
      <point x="36.0202746424" y="354.589600989" type="line"/>
      <point x="36.0202746424" y="99.2558863398"/>
      <point x="160.141204255" y="-14.0"/>
      <point x="346.564585926" y="-14.0" type="curve" smooth="yes"/>
      <point x="532.90266349" y="-14.0"/>
      <point x="656.667516405" y="99.2558863398"/>
      <point x="656.667516405" y="354.589600989" type="curve" smooth="yes"/>
      <point x="656.667516405" y="609.977637952"/>
      <point x="532.90266349" y="723.0"/>
      <point x="346.564585926" y="723.0" type="curve" smooth="yes"/>
      <point x="160.141204255" y="723.0"/>
      <point x="36.0202746424" y="609.977637952"/>
      <point x="36.0202746424" y="355.589600989" type="curve"/>
    </contour>
    <contour>
      <point x="346.564585926" y="622.971084206" type="line"/>
      <point x="427.65759517" y="622.971084206"/>
      <point x="502.739145631" y="557.070177979"/>
      <point x="502.739145631" y="353.877447594" type="curve" smooth="yes"/>
      <point x="502.739145631" y="152.163346313"/>
      <point x="427.65759517" y="86.028915794"/>
      <point x="346.564585926" y="86.028915794" type="curve" smooth="yes"/>
      <point x="265.278047436" y="86.028915794"/>
      <point x="189.948645416" y="152.163346313"/>
      <point x="189.948645416" y="353.877447594" type="curve" smooth="yes"/>
      <point x="189.948645416" y="557.070177979"/>
      <point x="265.278047436" y="622.971084206"/>
      <point x="345.564585926" y="622.971084206" type="curve"/>
    </contour>
  </outline>
</glyph>
<glyph name="P" format="1">
  <advance width="607.680126367"/>
  <unicode hex="0050"/>
  <outline>
    <contour>
      <point x="208.868393935" y="0.0" type="line"/>
      <point x="208.868393935" y="259.28824847" type="line"/>
      <point x="295.959948149" y="259.28824847" type="line"/>
      <point x="475.378185397" y="259.28824847"/>
      <point x="579.679424247" y="323.821292178"/>
      <point x="579.679424247" y="488.700234312" type="curve" smooth="yes"/>
      <point x="579.679424247" y="626.196293749"/>
      <point x="500.877886997" y="709.0"/>
      <point x="301.719321013" y="709.0" type="curve" smooth="yes"/>
      <point x="58.8221252716" y="709.0" type="line"/>
      <point x="58.8221252716" y="0.0" type="line"/>
    </contour>
    <contour>
      <point x="208.868393935" y="360.137962286" type="curve"/>
      <point x="208.868393935" y="608.560685195" type="line"/>
      <point x="295.847603461" y="608.560685195" type="line" smooth="yes"/>
      <point x="380.399295685" y="608.560685195"/>
      <point x="425.751053473" y="573.769977843"/>
      <point x="425.751053473" y="487.712234322" type="curve" smooth="yes"/>
      <point x="425.751053473" y="395.184827232"/>
      <point x="381.455592215" y="361.089335571"/>
      <point x="290.224948298" y="360.224873999" type="curve" smooth="yes"/>
      <point x="289.791725206" y="360.16571657"/>
      <point x="209.347331918" y="360.137962286"/>
    </contour>
  </outline>
</glyph>
<glyph name="Q" format="1">
  <advance width="693.043867745"/>
  <unicode hex="0051"/>
  <outline>
    <contour>
      <point x="550.963479995" y="51.9350394566" type="line"/>
      <point x="618.170941885" y="111.031797584"/>
      <point x="656.667516405" y="210.177690509"/>
      <point x="656.667516405" y="354.589600989" type="curve" smooth="yes"/>
      <point x="656.667516405" y="609.977637952"/>
      <point x="532.90266349" y="723.0"/>
      <point x="346.564585926" y="723.0" type="curve" smooth="yes"/>
      <point x="160.141204255" y="723.0"/>
      <point x="36.0202746424" y="609.977637952"/>
      <point x="36.0202746424" y="354.589600989" type="curve" smooth="yes"/>
      <point x="36.0202746424" y="99.2558863398"/>
      <point x="160.141204255" y="-14.0"/>
      <point x="346.564585926" y="-14.0" type="curve" smooth="yes"/>
      <point x="383.954425557" y="-14.0"/>
      <point x="419.443896564" y="-7.67860712649"/>
      <point x="449.552997867" y="5.86401424624" type="curve"/>
      <point x="586.845681478" y="-136.001830307" type="line"/>
      <point x="672.077564022" y="-54.0820895017" type="line"/>
    </contour>
    <contour>
      <point x="346.564585926" y="622.971084206" type="line"/>
      <point x="427.65759517" y="622.971084206"/>
      <point x="502.739145631" y="557.070177979"/>
      <point x="502.739145631" y="353.877447594" type="curve" smooth="yes"/>
      <point x="502.739145631" y="152.163346313"/>
      <point x="427.65759517" y="86.028915794"/>
      <point x="346.564585926" y="86.028915794" type="curve" smooth="yes"/>
      <point x="265.278047436" y="86.028915794"/>
      <point x="189.948645416" y="152.163346313"/>
      <point x="189.948645416" y="353.877447594" type="curve" smooth="yes"/>
      <point x="189.948645416" y="557.070177979"/>
      <point x="265.278047436" y="622.971084206"/>
      <point x="345.564585926" y="622.971084206" type="curve"/>
    </contour>
  </outline>
</glyph>
<glyph name="R" format="1">
  <advance width="617.133383476"/>
  <unicode hex="0052"/>
  <outline>
    <contour>
      <point x="613.915808795" y="0.0" type="line"/>
      <point x="429.608686369" y="0.0" type="line"/>
      <point x="273.045357184" y="271.836653687" type="line"/>
      <point x="208.868393935" y="271.836653687" type="line"/>
      <point x="208.868393935" y="0.0" type="line"/>
      <point x="58.8221252716" y="0.0" type="line"/>
      <point x="58.8221252716" y="709.0" type="line"/>
      <point x="287.668760436" y="709.0" type="line" smooth="yes"/>
      <point x="422.636443207" y="709.0"/>
      <point x="572.109944566" y="669.959298739"/>
      <point x="572.109944566" y="492.186082407" type="curve" smooth="yes"/>
      <point x="572.109944566" y="366.481435558"/>
      <point x="499.275684396" y="310.273428346"/>
      <point x="412.586619795" y="293.014713505" type="curve"/>
    </contour>
    <contour>
      <point x="207.520911" y="370.743436564" type="line" smooth="yes"/>
      <point x="218.426379613" y="370.743436564"/>
      <point x="316.300167659" y="379.913944261"/>
      <point x="316.300167659" y="411.638943863" type="curve" smooth="yes"/>
      <point x="383.159760689" y="443.859646583"/>
      <point x="410.746027011" y="482.815342155"/>
      <point x="400.831964635" y="530.464653182" type="curve" smooth="yes"/>
      <point x="400.831964635" y="577.06394289"/>
      <point x="370.611057234" y="608.560685195"/>
      <point x="286.264748999" y="608.560685195" type="curve"/>
      <point x="208.512317237" y="525.5304128" type="line"/>
    </contour>
  </outline>
</glyph>
<glyph name="S" format="1">
  <advance width="556.8264626"/>
  <unicode hex="0053"/>
  <outline>
    <contour>
      <point x="508.856760858" y="556.383262517" type="line"/>
      <point x="493.100387744" y="650.966392369"/>
      <point x="421.890120541" y="723.0"/>
      <point x="284.777606391" y="723.0" type="curve" smooth="yes"/>
      <point x="202.257579811" y="723.0"/>
      <point x="143.789010523" y="700.614247517"/>
      <point x="104.136693487" y="666.48232011" type="curve" smooth="yes"/>
      <point x="64.788104571" y="634.24712806"/>
      <point x="47.1414475134" y="588.538507414"/>
      <point x="47.1414475134" y="539.247744782" type="curve" smooth="yes"/>
      <point x="47.1414475134" y="473.533635405"/>
      <point x="76.5151794357" y="429.569395422"/>
      <point x="107.094440614" y="400.163888144" type="curve" smooth="yes"/>
      <point x="135.904719348" y="371.530350068"/>
      <point x="175.335636636" y="345.569329296"/>
      <point x="234.641823302" y="314.213714866" type="curve" smooth="yes"/>
      <point x="289.982638022" y="282.906269756"/>
      <point x="316.206653251" y="267.771896817"/>
      <point x="338.059731517" y="251.835947652" type="curve" smooth="yes"/>
      <point x="360.040676206" y="232.997176103"/>
      <point x="373.481565964" y="210.32137429"/>
      <point x="373.481565964" y="177.165400149" type="curve" smooth="yes"/>
      <point x="373.481565964" y="155.831350561"/>
      <point x="366.437520959" y="133.412949353"/>
      <point x="352.324113897" y="118.141633569" type="curve" smooth="yes"/>
      <point x="336.599559586" y="102.251109772"/>
      <point x="311.551525156" y="86.028915794"/>
      <point x="274.698988276" y="86.028915794" type="curve" smooth="yes"/>
      <point x="217.668455736" y="86.028915794"/>
      <point x="190.007495585" y="123.593405192"/>
      <point x="177.671611755" y="166.949526637" type="curve"/>
      <point x="29.8349856372" y="159.65888031" type="line"/>
      <point x="46.1676426979" y="60.3403095189"/>
      <point x="117.761677624" y="-14.0"/>
      <point x="274.938839606" y="-14.0" type="curve" smooth="yes"/>
      <point x="368.757340826" y="-14.0"/>
      <point x="428.947609758" y="20.3862984736"/>
      <point x="468.124577436" y="56.4284942756" type="curve" smooth="yes"/>
      <point x="509.898787379" y="95.2991293751"/>
      <point x="527.409936738" y="147.121049165"/>
      <point x="527.409936738" y="196.513767636" type="curve" smooth="yes"/>
      <point x="527.409936738" y="258.131590681"/>
      <point x="500.369421686" y="302.139105454"/>
      <point x="468.892538631" y="333.371017758" type="curve" smooth="yes"/>
      <point x="441.714251952" y="359.841699608"/>
      <point x="405.038174908" y="380.541560007"/>
      <point x="349.415895566" y="411.186815302" type="curve" smooth="yes"/>
      <point x="292.776431494" y="438.704737172"/>
      <point x="269.462866933" y="452.577123752"/>
      <point x="241.803916879" y="472.219199819" type="curve" smooth="yes"/>
      <point x="212.194215133" y="492.559102014"/>
      <point x="197.657511506" y="519.228877334"/>
      <point x="197.657511506" y="549.916439145" type="curve" smooth="yes"/>
      <point x="197.657511506" y="569.198913166"/>
      <point x="204.193320385" y="587.054755934"/>
      <point x="217.369883534" y="599.077800671" type="curve" smooth="yes"/>
      <point x="231.956605683" y="613.094998392"/>
      <point x="256.282098696" y="622.971084206"/>
      <point x="281.209852208" y="622.971084206" type="curve" smooth="yes"/>
      <point x="333.001786451" y="622.971084206"/>
      <point x="355.374789283" y="586.566928511"/>
      <point x="366.135581665" y="551.858851887" type="curve"/>
    </contour>
  </outline>
</glyph>
<glyph name="T" format="1">
  <advance width="520.78771698"/>
  <unicode hex="0054"/>
  <outline>
    <contour>
      <point x="503.254955395" y="709.0" type="line"/>
      <point x="17.3702141334" y="709.0" type="line"/>
      <point x="17.3702141334" y="608.560685195" type="line"/>
      <point x="185.487486304" y="608.560685195" type="line"/>
      <point x="185.487486304" y="0.0" type="line"/>
      <point x="335.533754967" y="0.0" type="line"/>
      <point x="335.533754967" y="608.560685195" type="line"/>
      <point x="503.254955395" y="608.560685195" type="line"/>
    </contour>
  </outline>
</glyph>
<glyph name="U" format="1">
  <advance width="639.845363495"/>
  <unicode hex="0055"/>
  <outline>
    <contour>
      <point x="585.132415848" y="709.0" type="line"/>
      <point x="436.902765949" y="709.0" type="line"/>
      <point x="436.902765949" y="242.142905715" type="line" smooth="yes"/>
      <point x="436.902765949" y="140.500631726"/>
      <point x="412.080437026" y="86.028915794"/>
      <point x="319.047771156" y="86.028915794" type="curve" smooth="yes"/>
      <point x="225.698128886" y="86.028915794"/>
      <point x="202.780050093" y="142.608083854"/>
      <point x="202.780050093" y="242.142905715" type="curve" smooth="yes"/>
      <point x="202.780050093" y="709.0" type="line"/>
      <point x="54.7129476463" y="709.0" type="line"/>
      <point x="54.7129476463" y="244.674905314" type="line" smooth="yes"/>
      <point x="54.7129476463" y="61.483697677"/>
      <point x="128.572152291" y="-14.0"/>
      <point x="318.691694459" y="-14.0" type="curve" smooth="yes"/>
      <point x="514.990438604" y="-14.0"/>
      <point x="585.132415848" y="65.4087815916"/>
      <point x="585.132415848" y="243.606675221" type="curve" smooth="yes"/>
    </contour>
  </outline>
</glyph>
<glyph name="V" format="1">
  <advance width="601.817556323"/>
  <unicode hex="0056"/>
  <outline>
    <contour>
      <point x="298.69743076" y="97.8442257543" type="line"/>
      <point x="281.549342669" y="187.892486196"/>
      <point x="264.204978586" y="258.702494304"/>
      <point x="247.483944033" y="330.564497466" type="curve" smooth="yes"/>
      <point x="168.319772881" y="709.0" type="line"/>
      <point x="12.290936518" y="709.0" type="line"/>
      <point x="207.159078112" y="0.0" type="line"/>
      <point x="397.120212776" y="0.0" type="line"/>
      <point x="592.096579509" y="709.0" type="line"/>
      <point x="435.463814889" y="709.0" type="line"/>
      <point x="356.328298273" y="331.803755263" type="line" smooth="yes"/>
      <point x="338.892363578" y="258.885102529"/>
      <point x="322.41111982" y="187.87583167"/>
      <point x="305.718739803" y="97.8442257543" type="curve"/>
    </contour>
  </outline>
</glyph>
<glyph name="W" format="1">
  <advance width="964.839540468"/>
  <unicode hex="0057"/>
  <outline>
    <contour>
      <point x="485.576317681" y="585.30388832" type="line"/>
      <point x="501.793530612" y="460.130298778"/>
      <point x="517.692155156" y="368.532276103"/>
      <point x="534.32000711" y="276.144730187" type="curve" smooth="yes"/>
      <point x="586.106258854" y="0.0" type="line"/>
      <point x="780.415291178" y="0.0" type="line"/>
      <point x="956.186793746" y="709.0" type="line"/>
      <point x="804.897926338" y="709.0" type="line"/>
      <point x="747.025475737" y="416.417532471" type="line" smooth="yes"/>
      <point x="728.2133478" y="322.868871614"/>
      <point x="710.110626511" y="228.764997809"/>
      <point x="690.697557075" y="111.307324227" type="curve"/>
      <point x="687.273250285" y="111.307324227" type="line"/>
      <point x="669.914083674" y="229.380087099"/>
      <point x="651.554917063" y="322.609679545"/>
      <point x="633.825346487" y="416.679711298" type="curve" smooth="yes"/>
      <point x="578.818583482" y="709.0" type="line"/>
      <point x="388.249167259" y="709.0" type="line"/>
      <point x="333.738107374" y="417.989945935" type="line" smooth="yes"/>
      <point x="315.885984391" y="325.509515171"/>
      <point x="297.316214519" y="230.958107567"/>
      <point x="280.785906694" y="111.307324227" type="curve"/>
      <point x="277.361599904" y="111.307324227" type="line"/>
      <point x="258.167727492" y="227.835974649"/>
      <point x="238.746177804" y="323.207760786"/>
      <point x="219.934049866" y="417.522897352" type="curve" smooth="yes"/>
      <point x="162.169824404" y="709.0" type="line"/>
      <point x="10.2770287386" y="709.0" type="line"/>
      <point x="187.148162683" y="0.0" type="line"/>
      <point x="381.101118309" y="0.0" type="line"/>
      <point x="432.499892073" y="271.256654559" type="line" smooth="yes"/>
      <point x="448.646368176" y="363.912226318"/>
      <point x="465.27422013" y="458.458140428"/>
      <point x="480.972808912" y="585.30388832" type="curve"/>
    </contour>
  </outline>
</glyph>
<glyph name="X" format="1">
  <advance width="578.191657199"/>
  <unicode hex="0058"/>
  <outline>
    <contour>
      <point x="295.55069803" y="437.821151071" type="line"/>
      <point x="293.086396194" y="437.821151071" type="line"/>
      <point x="191.400518067" y="709.0" type="line"/>
      <point x="24.5717222296" y="709.0" type="line"/>
      <point x="210.776016605" y="364.15549971" type="line"/>
      <point x="18.3776627808" y="0.0" type="line"/>
      <point x="189.488693455" y="0.0" type="line"/>
      <point x="292.852871903" y="270.350770553" type="line"/>
      <point x="295.55069803" y="270.350770553" type="line"/>
      <point x="399.341930015" y="0.0" type="line"/>
      <point x="570.096883992" y="0.0" type="line"/>
      <point x="377.806755306" y="364.15549971" type="line"/>
      <point x="563.902824543" y="709.0" type="line"/>
      <point x="397.196581112" y="709.0" type="line"/>
    </contour>
  </outline>
</glyph>
<glyph name="Y" format="1">
  <advance width="562.00429839"/>
  <unicode hex="0059"/>
  <outline>
    <contour>
      <point x="554.18625747" y="709.0" type="line"/>
      <point x="392.010039901" y="709.0" type="line"/>
      <point x="338.663910496" y="541.088222931" type="line" smooth="yes"/>
      <point x="320.297817881" y="482.129352736"/>
      <point x="301.860748426" y="422.139500747"/>
      <point x="283.856466014" y="350.530084428" type="curve"/>
      <point x="280.688844557" y="350.530084428" type="line"/>
      <point x="262.485299393" y="421.279127168"/>
      <point x="243.489610744" y="479.901321939"/>
      <point x="225.163513174" y="539.341567985" type="curve" smooth="yes"/>
      <point x="171.506376123" y="709.0" type="line"/>
      <point x="7.4619642221" y="709.0" type="line"/>
      <point x="207.233820312" y="262.807440169" type="line"/>
      <point x="207.233820312" y="0.0" type="line"/>
      <point x="357.636165673" y="0.0" type="line"/>
      <point x="357.636165673" y="262.807440169" type="line"/>
    </contour>
  </outline>
</glyph>
<glyph name="Z" format="1">
  <advance width="510.360162868"/>
  <unicode hex="005A"/>
  <outline>
    <contour>
      <point x="38.348824004" y="0.0" type="line"/>
      <point x="475.567923787" y="0.0" type="line"/>
      <point x="475.567923787" y="100.439314805" type="line"/>
      <point x="210.546652499" y="100.439314805" type="line"/>
      <point x="461.529308277" y="631.169379511" type="line"/>
      <point x="461.529308277" y="709.0" type="line"/>
      <point x="55.2455435737" y="709.0" type="line"/>
      <point x="55.2455435737" y="608.560685195" type="line"/>
      <point x="293.291065248" y="608.560685195" type="line"/>
      <point x="38.348824004" y="74.8853622914" type="line"/>
    </contour>
  </outline>
</glyph>
<glyph name="bracketleft" format="1">
  <advance width="366.797728744"/>
  <unicode hex="005B"/>
  <outline>
    <contour>
      <point x="340.911914387" y="-156.0" type="line"/>
      <point x="340.911914387" y="-60.2998206041" type="line"/>
      <point x="225.936251923" y="-60.2998206041" type="line"/>
      <point x="225.936251923" y="643.299820604" type="line"/>
      <point x="340.911914387" y="643.299820604" type="line"/>
      <point x="340.911914387" y="739.0" type="line"/>
      <point x="83.611865177" y="739.0" type="line"/>
      <point x="83.611865177" y="-156.0" type="line"/>
    </contour>
  </outline>
</glyph>
<glyph name="backslash" format="1">
  <advance width="443.251653248"/>
  <unicode hex="005C"/>
  <outline>
    <contour>
      <point x="5.50367570939" y="739.0" type="line"/>
      <point x="316.73083127" y="-12.0" type="line"/>
      <point x="428.543112547" y="-12.0" type="line"/>
      <point x="116.797332837" y="739.0" type="line"/>
    </contour>
  </outline>
</glyph>
<glyph name="bracketright" format="1">
  <advance width="366.054174066"/>
  <unicode hex="005D"/>
  <outline>
    <contour>
      <point x="18.5871650059" y="-156.0" type="line"/>
      <point x="276.049761667" y="-156.0" type="line"/>
      <point x="276.049761667" y="739.0" type="line"/>
      <point x="18.5871650059" y="739.0" type="line"/>
      <point x="18.5871650059" y="643.299820604" type="line"/>
      <point x="133.369298224" y="643.299820604" type="line"/>
      <point x="133.369298224" y="-60.2998206041" type="line"/>
      <point x="18.5871650059" y="-60.2998206041" type="line"/>
    </contour>
  </outline>
</glyph>
<glyph name="underscore" format="1">
  <advance width="488.971047362"/>
  <unicode hex="005F"/>
  <outline>
    <contour>
      <point x="488.971047362" y="-125.0" type="line"/>
      <point x="488.971047362" y="-75.0" type="line"/>
      <point x="0.0" y="-75.0" type="line"/>
      <point x="0.0" y="-125.0" type="line"/>
    </contour>
  </outline>
</glyph>
<glyph name="a" format="1">
  <advance width="567.321348476"/>
  <unicode hex="0061"/>
  <outline>
    <contour>
      <point x="520.041585314" y="0.0" type="line"/>
      <point x="520.041585314" y="7.06405083549" type="line"/>
      <point x="505.036820083" y="16.7550059018"/>
      <point x="502.122124191" y="38.6137145182"/>
      <point x="502.122124191" y="81.4520590188" type="curve" smooth="yes"/>
      <point x="502.122124191" y="336.416118029" type="line" smooth="yes"/>
      <point x="502.122124191" y="501.24266684"/>
      <point x="420.857062051" y="544.0"/>
      <point x="286.859038875" y="544.0" type="curve" smooth="yes"/>
      <point x="135.738592432" y="544.0"/>
      <point x="79.868515646" y="469.568899139"/>
      <point x="59.4885667309" y="394.829703195" type="curve"/>
      <point x="202.680314263" y="383.651519003" type="line"/>
      <point x="212.71147077" y="422.763271299"/>
      <point x="235.115524159" y="462.395922027"/>
      <point x="283.51221544" y="462.395922027" type="curve" smooth="yes"/>
      <point x="340.264922884" y="462.395922027"/>
      <point x="359.726760605" y="422.896448943"/>
      <point x="359.726760605" y="360.273817088" type="curve" smooth="yes"/>
      <point x="359.726760605" y="342.323007657" type="line"/>
      <point x="109.240066048" y="311.214835493"/>
      <point x="33.8435821954" y="242.121328333"/>
      <point x="33.8435821954" y="138.342757688" type="curve" smooth="yes"/>
      <point x="33.8435821954" y="44.140317677"/>
      <point x="93.5343462888" y="-12.0"/>
      <point x="219.938937148" y="-12.0" type="curve" smooth="yes"/>
      <point x="282.978136664" y="-12.0"/>
      <point x="334.38592927" y="10.6318097828"/>
      <point x="362.800064703" y="33.1881408749" type="curve"/>
      <point x="365.172795927" y="33.1881408749" type="line"/>
      <point x="366.833373756" y="20.2872420479"/>
      <point x="370.289614828" y="8.53604889008"/>
      <point x="377.144492117" y="0.0" type="curve"/>
    </contour>
    <contour>
      <point x="359.960284896" y="117.056376176" type="line"/>
      <point x="325.841576141" y="87.5869509832"/>
      <point x="282.967384256" y="75.777187492"/>
      <point x="252.277686987" y="75.777187492" type="curve" smooth="yes"/>
      <point x="201.89772179" y="75.777187492"/>
      <point x="179.901850868" y="104.427669458"/>
      <point x="179.901850868" y="147.62916635" type="curve" smooth="yes"/>
      <point x="179.901850868" y="205.738757045"/>
      <point x="229.678239361" y="249.093497946"/>
      <point x="359.960284896" y="267.844464084" type="curve"/>
    </contour>
  </outline>
</glyph>
<glyph name="b" format="1">
  <advance width="575.77536938"/>
  <unicode hex="0062"/>
  <outline>
    <contour>
      <point x="52.6155328147" y="0.0" type="line"/>
      <point x="194.80029314" y="0.0" type="line"/>
      <point x="194.156369837" y="40.9570703437" type="line"/>
      <point x="196.785965872" y="40.9570703437" type="line"/>
      <point x="229.041799904" y="16.2249826766"/>
      <point x="271.059146355" y="-12.0"/>
      <point x="333.249171652" y="-12.0" type="curve" smooth="yes"/>
      <point x="486.425782721" y="-12.0"/>
      <point x="544.527356927" y="119.308805262"/>
      <point x="544.527356927" y="266.449974568" type="curve" smooth="yes"/>
      <point x="544.527356927" y="450.601450969"/>
      <point x="451.06273854" y="544.0"/>
      <point x="337.179509049" y="544.0" type="curve" smooth="yes"/>
      <point x="275.737736866" y="544.0"/>
      <point x="233.776269773" y="520.13263445"/>
      <point x="197.42362267" y="491.248039423" type="curve"/>
      <point x="195.295996258" y="491.248039423" type="line"/>
      <point x="195.295996258" y="727.0" type="line"/>
      <point x="52.6155328147" y="727.0" type="line"/>
    </contour>
    <contour>
      <point x="195.295996258" y="386.974834606" type="line"/>
      <point x="222.646199798" y="416.980559725"/>
      <point x="258.479093424" y="443.058061504"/>
      <point x="299.99357814" y="443.058061504" type="curve" smooth="yes"/>
      <point x="362.775465559" y="443.058061504"/>
      <point x="398.469088254" y="382.651066931"/>
      <point x="398.716939814" y="263.957437685" type="curve" smooth="yes"/>
      <point x="398.964791373" y="151.575169606"/>
      <point x="360.842560892" y="88.941938496"/>
      <point x="300.694151014" y="88.941938496" type="curve" smooth="yes"/>
      <point x="250.288804768" y="88.941938496"/>
      <point x="216.312163202" y="120.893887291"/>
      <point x="195.295996258" y="148.321618753" type="curve"/>
    </contour>
  </outline>
</glyph>
<glyph name="c" format="1">
  <advance width="564.404441472"/>
  <unicode hex="0063"/>
  <outline>
    <contour>
      <point x="532.870376674" y="377.195005177" type="line"/>
      <point x="512.122544347" y="473.815556704"/>
      <point x="436.107956808" y="544.0"/>
      <point x="294.561637634" y="544.0" type="curve" smooth="yes"/>
      <point x="132.621101511" y="544.0"/>
      <point x="31.0001608937" y="450.187159428"/>
      <point x="31.0001608937" y="266.851779816" type="curve" smooth="yes"/>
      <point x="31.0001608937" y="86.4924422964"/>
      <point x="121.039746195" y="-12.0"/>
      <point x="294.034533232" y="-12.0" type="curve" smooth="yes"/>
      <point x="427.029327001" y="-12.0"/>
      <point x="511.234404721" y="56.8403501523"/>
      <point x="536.48271642" y="163.930897706" type="curve"/>
      <point x="389.616662757" y="175.317890899" type="line"/>
      <point x="372.433476118" y="116.837942795"/>
      <point x="344.452415283" y="77.0831823365"/>
      <point x="293.15475838" y="77.0831823365" type="curve" smooth="yes"/>
      <point x="229.567761159" y="77.0831823365"/>
      <point x="177.058429567" y="124.874834776"/>
      <point x="177.058429567" y="266.028654536" type="curve" smooth="yes"/>
      <point x="177.058429567" y="396.874068471"/>
      <point x="224.562032418" y="454.916817663"/>
      <point x="293.88398579" y="454.916817663" type="curve" smooth="yes"/>
      <point x="343.011343252" y="454.916817663"/>
      <point x="369.939749531" y="419.033523054"/>
      <point x="387.879023857" y="367.803832726" type="curve"/>
    </contour>
  </outline>
</glyph>
<glyph name="d" format="1">
  <advance width="575.77536938"/>
  <unicode hex="0064"/>
  <outline>
    <contour>
      <point x="381.371147984" y="40.9570703437" type="line"/>
      <point x="380.479373122" y="0.0" type="line"/>
      <point x="523.159836566" y="0.0" type="line"/>
      <point x="523.159836566" y="727.0" type="line"/>
      <point x="380.479373122" y="727.0" type="line"/>
      <point x="380.479373122" y="492.73514878" type="line"/>
      <point x="378.545275956" y="492.73514878" type="line"/>
      <point x="341.970445071" y="521.10971342"/>
      <point x="297.468865309" y="544.0"/>
      <point x="239.339415009" y="544.0" type="curve" smooth="yes"/>
      <point x="124.71263084" y="544.0"/>
      <point x="31.0001608937" y="451.097154088"/>
      <point x="31.0001608937" y="266.449974568" type="curve" smooth="yes"/>
      <point x="31.0001608937" y="102.712826895"/>
      <point x="95.8671923541" y="-12.0"/>
      <point x="242.278346168" y="-12.0" type="curve" smooth="yes"/>
      <point x="305.939359295" y="-12.0"/>
      <point x="347.948644981" y="16.4486519442"/>
      <point x="379.097628647" y="40.9570703437" type="curve"/>
    </contour>
    <contour>
      <point x="274.833366807" y="88.941938496" type="line"/>
      <point x="215.186747075" y="88.941938496"/>
      <point x="176.562726448" y="145.536193015"/>
      <point x="177.058429567" y="263.957437685" type="curve" smooth="yes"/>
      <point x="177.306281126" y="382.41754264"/>
      <point x="212.641080377" y="443.058061504"/>
      <point x="275.533939681" y="443.058061504" type="curve" smooth="yes"/>
      <point x="317.982521562" y="443.058061504"/>
      <point x="353.952294863" y="416.499183874"/>
      <point x="380.479373122" y="386.974834606" type="curve"/>
      <point x="380.479373122" y="148.321618753" type="line"/>
      <point x="358.573225577" y="119.152126873"/>
      <point x="325.089300371" y="88.941938496"/>
      <point x="275.833366807" y="88.941938496" type="curve"/>
    </contour>
  </outline>
</glyph>
<glyph name="e" format="1">
  <advance width="564.366237222"/>
  <unicode hex="0065"/>
  <outline>
    <contour>
      <point x="534.100968482" y="238.128058064" type="line"/>
      <point x="534.100968482" y="338.783511708"/>
      <point x="511.910613031" y="421.249310053"/>
      <point x="457.671976719" y="478.741902707" type="curve" smooth="yes"/>
      <point x="412.167644618" y="524.39183951"/>
      <point x="353.888129536" y="544.0"/>
      <point x="284.67994958" y="544.0" type="curve" smooth="yes"/>
      <point x="205.905875667" y="544.0"/>
      <point x="146.428350867" y="520.866233586"/>
      <point x="104.359006566" y="481.011414036" type="curve" smooth="yes"/>
      <point x="54.3448235554" y="433.083469864"/>
      <point x="31.0001608937" y="358.016192259"/>
      <point x="31.0001608937" y="268.87004633" type="curve" smooth="yes"/>
      <point x="31.0001608937" y="166.151312893"/>
      <point x="56.2565932238" y="96.1120908573"/>
      <point x="101.819788645" y="51.9784379534" type="curve" smooth="yes"/>
      <point x="148.245563165" y="5.40185822371"/>
      <point x="214.869334412" y="-12.0"/>
      <point x="286.152731668" y="-12.0" type="curve" smooth="yes"/>
      <point x="361.211910203" y="-12.0"/>
      <point x="415.020323946" y="7.31088114518"/>
      <point x="455.293166027" y="36.7147076735" type="curve" smooth="yes"/>
      <point x="495.139194582" y="67.3379712369"/>
      <point x="520.523554539" y="103.533648264"/>
      <point x="534.017458634" y="137.996045126" type="curve"/>
      <point x="385.440684085" y="145.251770413" type="line"/>
      <point x="364.580027875" y="96.625148973"/>
      <point x="333.889209666" y="69.6040779733"/>
      <point x="287.403150498" y="69.6040779733" type="curve" smooth="yes"/>
      <point x="230.504243322" y="69.6040779733"/>
      <point x="185.41372849" y="112.384162883"/>
      <point x="177.291953858" y="238.128058064" type="curve"/>
    </contour>
    <contour>
      <point x="177.058429567" y="309.338934748" type="line"/>
      <point x="186.114301364" y="425.009315426"/>
      <point x="231.994772745" y="462.395922027"/>
      <point x="283.990957227" y="462.395922027" type="curve" smooth="yes"/>
      <point x="335.845496803" y="462.395922027"/>
      <point x="376.513752936" y="411.888644806"/>
      <point x="387.498407882" y="309.338934748" type="curve"/>
    </contour>
  </outline>
</glyph>
<glyph name="g" format="1">
  <advance width="588.221941165"/>
  <unicode hex="0067"/>
  <outline>
    <contour>
      <point x="397.569628197" y="495.174268294" type="line"/>
      <point x="395.173556454" y="495.174268294" type="line"/>
      <point x="365.10236295" y="525.260273853"/>
      <point x="317.347435339" y="544.0"/>
      <point x="264.08899488" y="544.0" type="curve" smooth="yes"/>
      <point x="111.842433812" y="544.0"/>
      <point x="32.6348309334" y="442.796199525"/>
      <point x="32.6348309334" y="267.961253224" type="curve" smooth="yes"/>
      <point x="32.6348309334" y="91.109289167"/>
      <point x="109.858693518" y="-12.0"/>
      <point x="260.680150117" y="-12.0" type="curve" smooth="yes"/>
      <point x="325.259856948" y="-12.0"/>
      <point x="368.864237117" y="11.7596576229"/>
      <point x="394.250799798" y="33.7489608262" type="curve"/>
      <point x="396.321776638" y="33.7489608262" type="line"/>
      <point x="396.321776638" y="13.2211577684" type="line" smooth="yes"/>
      <point x="396.321776638" y="-53.9436285877"/>
      <point x="388.175411249" y="-104.418196708"/>
      <point x="369.290092723" y="-133.991026865" type="curve" smooth="yes"/>
      <point x="350.918926103" y="-158.691174659"/>
      <point x="322.439244153" y="-172.150341955"/>
      <point x="291.542772155" y="-172.150341955" type="curve" smooth="yes"/>
      <point x="263.000049596" y="-172.150341955"/>
      <point x="239.715379582" y="-164.950786216"/>
      <point x="224.137308934" y="-151.864643132" type="curve" smooth="yes"/>
      <point x="206.095778224" y="-137.059966637"/>
      <point x="196.08689427" y="-118.645095382"/>
      <point x="189.389730439" y="-88.5680844905" type="curve"/>
      <point x="42.7443063094" y="-99.036500285" type="line"/>
      <point x="63.8732923731" y="-158.249956402"/>
      <point x="98.7104266193" y="-197.269587491"/>
      <point x="138.022071247" y="-222.030865489" type="curve" smooth="yes"/>
      <point x="185.740468627" y="-251.886041356"/>
      <point x="239.866338793" y="-261.233524291"/>
      <point x="293.188782704" y="-261.233524291" type="curve" smooth="yes"/>
      <point x="376.445607239" y="-261.233524291"/>
      <point x="440.6974285" y="-238.031348308"/>
      <point x="479.290710967" y="-193.753121479" type="curve" smooth="yes"/>
      <point x="520.402857595" y="-144.793596548"/>
      <point x="538.646163384" y="-78.2179740691"/>
      <point x="538.646163384" y="29.3723028758" type="curve" smooth="yes"/>
      <point x="538.646163384" y="532.0" type="line"/>
      <point x="396.321776638" y="532.0" type="line"/>
    </contour>
    <contour>
      <point x="178.693099606" y="264.609535261" type="line"/>
      <point x="178.693099606" y="371.678513"/>
      <point x="207.147256068" y="440.457299483"/>
      <point x="293.680369068" y="440.457299483" type="curve" smooth="yes"/>
      <point x="340.446990551" y="440.457299483"/>
      <point x="375.936522761" y="417.195956996"/>
      <point x="396.321776638" y="391.023742384" type="curve"/>
      <point x="396.321776638" y="141.380150111" type="line"/>
      <point x="369.846149412" y="113.932919654"/>
      <point x="336.549906437" y="91.5427005175"/>
      <point x="291.650762045" y="91.5427005175" type="curve" smooth="yes"/>
      <point x="218.951718715" y="91.5427005175"/>
      <point x="178.693099606" y="156.410794171"/>
      <point x="178.693099606" y="263.609535261" type="curve"/>
    </contour>
  </outline>
</glyph>
<glyph name="h" format="1">
  <advance width="586.646789182"/>
  <unicode hex="0068"/>
  <outline>
    <contour>
      <point x="538.743169751" y="0.0" type="line"/>
      <point x="538.743169751" y="354.722937183" type="line" smooth="yes"/>
      <point x="538.743169751" y="421.681085374"/>
      <point x="524.883695684" y="468.0127378"/>
      <point x="499.725934014" y="498.193127513" type="curve" smooth="yes"/>
      <point x="473.884253997" y="528.701358876"/>
      <point x="432.473513788" y="544.0"/>
      <point x="378.824428286" y="544.0" type="curve" smooth="yes"/>
      <point x="345.241227862" y="544.0"/>
      <point x="312.239034665" y="535.513130655"/>
      <point x="284.727172831" y="523.426454572" type="curve" smooth="yes"/>
      <point x="254.940477423" y="510.420008591"/>
      <point x="226.649485134" y="492.41612988"/>
      <point x="198.939500072" y="471.747860597" type="curve"/>
      <point x="195.295996258" y="471.747860597" type="line"/>
      <point x="195.295996258" y="727.0" type="line"/>
      <point x="52.6155328147" y="727.0" type="line"/>
      <point x="52.6155328147" y="0.0" type="line"/>
      <point x="195.295996258" y="0.0" type="line"/>
      <point x="195.295996258" y="365.767227632" type="line"/>
      <point x="216.463789633" y="387.323765012"/>
      <point x="241.876616261" y="406.261978104"/>
      <point x="262.901854194" y="417.644321545" type="curve" smooth="yes"/>
      <point x="282.688493831" y="428.57394367"/>
      <point x="305.145859307" y="434.682348285"/>
      <point x="326.129909697" y="434.682348285" type="curve" smooth="yes"/>
      <point x="352.545303595" y="434.682348285"/>
      <point x="368.990014325" y="425.068694302"/>
      <point x="379.194221785" y="409.728799667" type="curve" smooth="yes"/>
      <point x="392.726270894" y="388.631023086"/>
      <point x="395.814854748" y="352.681999687"/>
      <point x="395.814854748" y="309.389258554" type="curve" smooth="yes"/>
      <point x="395.814854748" y="0.0" type="line"/>
    </contour>
  </outline>
</glyph>
<glyph name="i" format="1">
  <advance width="255.229035676"/>
  <unicode hex="0069"/>
  <outline>
    <contour>
      <point x="198.900636991" y="639.155985165" type="line"/>
      <point x="198.900636991" y="734.075211868" type="line"/>
      <point x="56.3283986853" y="734.075211868" type="line"/>
      <point x="56.3283986853" y="639.155985165" type="line"/>
    </contour>
    <contour>
      <point x="198.900636991" y="532.0" type="line"/>
      <point x="56.3283986853" y="532.0" type="line"/>
      <point x="56.3283986853" y="0.0" type="line"/>
      <point x="198.900636991" y="0.0" type="line"/>
    </contour>
  </outline>
</glyph>
<glyph name="j" format="1">
  <advance width="255.229035676"/>
  <unicode hex="006A"/>
  <outline>
    <contour>
      <point x="198.544560293" y="639.155985165" type="line"/>
      <point x="198.544560293" y="734.075211868" type="line"/>
      <point x="55.9723219877" y="734.075211868" type="line"/>
      <point x="55.9723219877" y="639.155985165" type="line"/>
    </contour>
    <contour>
      <point x="-143.407363611" y="-209.624297805" type="line"/>
      <point x="-119.52258828" y="-220.540239171"/>
      <point x="-96.3356390767" y="-228.401325225"/>
      <point x="-72.8379222377" y="-233.769694919" type="curve" smooth="yes"/>
      <point x="-48.183151441" y="-239.01276546"/>
      <point x="-23.7901399832" y="-242.278224033"/>
      <point x="2.57582892592" y="-242.278224033" type="curve" smooth="yes"/>
      <point x="67.642885952" y="-242.278224033"/>
      <point x="117.652707433" y="-224.377562422"/>
      <point x="150.793508597" y="-183.929033356" type="curve" smooth="yes"/>
      <point x="183.511617754" y="-143.105738795"/>
      <point x="198.900636991" y="-81.4877912168"/>
      <point x="198.900636991" y="16.3999634724" type="curve" smooth="yes"/>
      <point x="198.900636991" y="532.0" type="line"/>
      <point x="56.3283986853" y="532.0" type="line"/>
      <point x="56.3283986853" y="-8.18066917224" type="line" smooth="yes"/>
      <point x="56.3283986853" y="-62.3194592527"/>
      <point x="51.8797988888" y="-98.4660728812"/>
      <point x="38.055008646" y="-121.364053712" type="curve" smooth="yes"/>
      <point x="25.5110282894" y="-139.050407237"/>
      <point x="2.62793453586" y="-148.813896187"/>
      <point x="-19.4984807938" y="-148.813896187" type="curve" smooth="yes"/>
      <point x="-38.2518031499" y="-148.813896187"/>
      <point x="-52.2653416203" y="-144.035127482"/>
      <point x="-62.747962945" y="-139.673024292" type="curve" smooth="yes"/>
      <point x="-77.0412872561" y="-133.45586154"/>
      <point x="-91.4344252157" y="-124.58970148"/>
      <point x="-102.743871055" y="-113.076338373" type="curve"/>
    </contour>
  </outline>
</glyph>
<glyph name="k" format="1">
  <advance width="541.755861016"/>
  <unicode hex="006B"/>
  <outline>
    <contour>
      <point x="335.537806742" y="321.485916858" type="line"/>
      <point x="505.742693982" y="532.0" type="line"/>
      <point x="343.616199312" y="532.0" type="line"/>
      <point x="265.533343511" y="426.713707803" type="line" smooth="yes"/>
      <point x="242.57592441" y="394.260329783"/>
      <point x="219.549855727" y="360.652998075"/>
      <point x="197.854195964" y="327.285037673" type="curve"/>
      <point x="193.840288185" y="327.285037673" type="line"/>
      <point x="195.048144699" y="365.805453287"/>
      <point x="195.295996258" y="395.054141028"/>
      <point x="195.295996258" y="429.544653835" type="curve" smooth="yes"/>
      <point x="195.295996258" y="727.0" type="line"/>
      <point x="52.6155328147" y="727.0" type="line"/>
      <point x="52.6155328147" y="0.0" type="line"/>
      <point x="195.295996258" y="0.0" type="line"/>
      <point x="195.295996258" y="176.216136871" type="line"/>
      <point x="246.66289974" y="224.604915937" type="line"/>
      <point x="363.718923238" y="0.0" type="line"/>
      <point x="539.958173857" y="0.0" type="line"/>
    </contour>
  </outline>
</glyph>
<glyph name="l" format="1">
  <advance width="255.229035676"/>
  <unicode hex="006C"/>
  <outline>
    <contour>
      <point x="198.900636991" y="0.0" type="line"/>
      <point x="198.900636991" y="727.0" type="line"/>
      <point x="56.3283986853" y="727.0" type="line"/>
      <point x="56.3283986853" y="0.0" type="line"/>
    </contour>
  </outline>
</glyph>
<glyph name="m" format="1">
  <advance width="880.513229989"/>
  <unicode hex="006D"/>
  <outline>
    <contour>
      <point x="832.361758999" y="0.0" type="line"/>
      <point x="832.361758999" y="355.899027869" type="line" smooth="yes"/>
      <point x="832.361758999" y="426.843859846"/>
      <point x="818.249778855" y="472.018877803"/>
      <point x="791.836524351" y="502.059108096" type="curve" smooth="yes"/>
      <point x="767.180732305" y="530.20224951"/>
      <point x="729.933138513" y="544.0"/>
      <point x="682.166208096" y="544.0" type="curve" smooth="yes"/>
      <point x="646.176072648" y="544.0"/>
      <point x="615.528581377" y="536.202782509"/>
      <point x="585.865810351" y="522.889508138" type="curve" smooth="yes"/>
      <point x="556.772226019" y="509.727200698"/>
      <point x="530.896466735" y="489.458042891"/>
      <point x="504.220563736" y="466.558690085" type="curve"/>
      <point x="500.46334129" y="466.558690085" type="line"/>
      <point x="490.842523259" y="486.930168275"/>
      <point x="477.023284249" y="506.160703012"/>
      <point x="459.934647421" y="519.204397292" type="curve" smooth="yes"/>
      <point x="438.055479093" y="534.73179468"/>
      <point x="409.102294193" y="544.0"/>
      <point x="369.754710071" y="544.0" type="curve" smooth="yes"/>
      <point x="337.965684609" y="544.0"/>
      <point x="305.219221463" y="536.254358075"/>
      <point x="278.167959435" y="524.464781859" type="curve" smooth="yes"/>
      <point x="250.595326511" y="512.085604654"/>
      <point x="224.203689824" y="493.947593016"/>
      <point x="197.816947666" y="470.89351351" type="curve"/>
      <point x="193.814620408" y="470.89351351" type="line"/>
      <point x="195.295996258" y="532.0" type="line"/>
      <point x="52.6155328147" y="532.0" type="line"/>
      <point x="52.6155328147" y="0.0" type="line"/>
      <point x="195.295996258" y="0.0" type="line"/>
      <point x="195.295996258" y="363.155658099" type="line"/>
      <point x="214.130691704" y="385.466069417"/>
      <point x="234.044957753" y="402.1829405"/>
      <point x="252.756681304" y="414.687836347" type="curve" smooth="yes"/>
      <point x="273.874624609" y="428.360353651"/>
      <point x="292.992807926" y="434.5713764"/>
      <point x="310.532018287" y="434.5713764" type="curve" smooth="yes"/>
      <point x="328.925153451" y="434.5713764"/>
      <point x="342.998507729" y="427.040992253"/>
      <point x="353.344668868" y="413.433604774" type="curve" smooth="yes"/>
      <point x="366.320426041" y="394.416351282"/>
      <point x="371.326452534" y="361.756546463"/>
      <point x="371.326452534" y="317.254874591" type="curve" smooth="yes"/>
      <point x="371.326452534" y="0.0" type="line"/>
      <point x="513.65083928" y="0.0" type="line"/>
      <point x="513.65083928" y="364.212967171" type="line"/>
      <point x="533.392169854" y="386.62628961"/>
      <point x="552.702507645" y="403.003738522"/>
      <point x="571.445212991" y="414.864711067" type="curve" smooth="yes"/>
      <point x="591.537488519" y="427.426256485"/>
      <point x="610.760377216" y="434.5713764"/>
      <point x="627.599014704" y="434.5713764" type="curve" smooth="yes"/>
      <point x="648.509399246" y="434.5713764"/>
      <point x="662.816277815" y="426.857851029"/>
      <point x="672.660469331" y="412.543624172" type="curve" smooth="yes"/>
      <point x="685.872737554" y="393.018134553"/>
      <point x="689.681295555" y="355.913123193"/>
      <point x="689.681295555" y="314.979210269" type="curve" smooth="yes"/>
      <point x="689.681295555" y="0.0" type="line"/>
    </contour>
  </outline>
</glyph>
<glyph name="n" format="1">
  <advance width="586.646789182"/>
  <unicode hex="006E"/>
  <outline>
    <contour>
      <point x="538.743169751" y="0.0" type="line"/>
      <point x="538.743169751" y="354.722937183" type="line" smooth="yes"/>
      <point x="538.743169751" y="421.681085374"/>
      <point x="524.883695684" y="468.0127378"/>
      <point x="499.725934014" y="498.193127513" type="curve" smooth="yes"/>
      <point x="473.884253997" y="528.701358876"/>
      <point x="432.473513788" y="544.0"/>
      <point x="378.824428286" y="544.0" type="curve" smooth="yes"/>
      <point x="345.241227862" y="544.0"/>
      <point x="312.239034665" y="536.21370353"/>
      <point x="284.727172831" y="523.426454572" type="curve" smooth="yes"/>
      <point x="254.940477423" y="509.238059866"/>
      <point x="224.314242221" y="485.848795185"/>
      <point x="198.705975781" y="457.488551554" type="curve"/>
      <point x="193.814620408" y="457.488551554" type="line"/>
      <point x="195.295996258" y="532.0" type="line"/>
      <point x="52.6155328147" y="532.0" type="line"/>
      <point x="52.6155328147" y="0.0" type="line"/>
      <point x="195.295996258" y="0.0" type="line"/>
      <point x="195.295996258" y="365.767227632" type="line"/>
      <point x="216.463789633" y="387.323765012"/>
      <point x="241.876616261" y="406.261978104"/>
      <point x="262.901854194" y="417.644321545" type="curve" smooth="yes"/>
      <point x="282.688493831" y="428.078240551"/>
      <point x="304.402304629" y="434.682348285"/>
      <point x="325.634206578" y="434.682348285" type="curve" smooth="yes"/>
      <point x="352.793155154" y="434.682348285"/>
      <point x="368.990014325" y="424.572991183"/>
      <point x="379.194221785" y="409.233096548" type="curve" smooth="yes"/>
      <point x="392.726270894" y="387.887468408"/>
      <point x="395.814854748" y="352.929851246"/>
      <point x="395.814854748" y="309.637110113" type="curve" smooth="yes"/>
      <point x="395.814854748" y="0.0" type="line"/>
    </contour>
  </outline>
</glyph>
<glyph name="o" format="1">
  <advance width="588.055691684"/>
  <unicode hex="006F"/>
  <outline>
    <contour>
      <point x="557.05553079" y="265.766475709" type="line"/>
      <point x="557.05553079" y="465.071843928"/>
      <point x="448.711806615" y="544.0"/>
      <point x="294.066467514" y="544.0" type="curve" smooth="yes"/>
      <point x="139.343885068" y="544.0"/>
      <point x="31.0001608937" y="465.071843928"/>
      <point x="31.0001608937" y="265.766475709" type="curve" smooth="yes"/>
      <point x="31.0001608937" y="95.6342033481"/>
      <point x="111.514153422" y="-12.0"/>
      <point x="294.066467514" y="-12.0" type="curve" smooth="yes"/>
      <point x="469.047211882" y="-12.0"/>
      <point x="557.05553079" y="92.6546278393"/>
      <point x="557.05553079" y="264.766475709" type="curve"/>
    </contour>
    <contour>
      <point x="294.066467514" y="77.0831823365" type="line"/>
      <point x="228.990535749" y="77.0831823365"/>
      <point x="177.058429567" y="130.772442834"/>
      <point x="177.058429567" y="265.643923302" type="curve" smooth="yes"/>
      <point x="177.058429567" y="402.132814728"/>
      <point x="233.750673395" y="454.916817663"/>
      <point x="294.066467514" y="454.916817663" type="curve" smooth="yes"/>
      <point x="354.305018289" y="454.916817663"/>
      <point x="410.997262117" y="403.557121518"/>
      <point x="410.997262117" y="265.643923302" type="curve" smooth="yes"/>
      <point x="410.997262117" y="138.29883476"/>
      <point x="360.606168116" y="77.0831823365"/>
      <point x="295.066467514" y="77.0831823365" type="curve"/>
    </contour>
  </outline>
</glyph>
<glyph name="p" format="1">
  <advance width="575.541845089"/>
  <unicode hex="0070"/>
  <outline>
    <contour>
      <point x="52.3820085233" y="-248.0" type="line"/>
      <point x="195.062471967" y="-248.0" type="line"/>
      <point x="195.062471967" y="36.9914453934" type="line"/>
      <point x="197.048144699" y="36.9914453934" type="line"/>
      <point x="217.534940517" y="20.5818881553"/>
      <point x="238.018807316" y="8.50781384263"/>
      <point x="258.743306682" y="0.797035218735" type="curve" smooth="yes"/>
      <point x="286.233199973" y="-9.53295141722"/>
      <point x="310.816698148" y="-12.0"/>
      <point x="333.340742264" y="-12.0" type="curve" smooth="yes"/>
      <point x="400.168546926" y="-12.0"/>
      <point x="451.043040185" y="11.5571179216"/>
      <point x="486.323407235" y="53.2922453224" type="curve" smooth="yes"/>
      <point x="521.839683575" y="96.1717114003"/>
      <point x="544.293832636" y="168.938121142"/>
      <point x="544.293832636" y="266.775069471" type="curve" smooth="yes"/>
      <point x="544.293832636" y="370.592537568"/>
      <point x="519.252536346" y="438.680408946"/>
      <point x="482.458798628" y="481.837642381" type="curve" smooth="yes"/>
      <point x="443.314358765" y="525.736575699"/>
      <point x="393.756480156" y="544.0"/>
      <point x="335.95457852" y="544.0" type="curve" smooth="yes"/>
      <point x="303.742383823" y="544.0"/>
      <point x="277.855044018" y="537.4723626"/>
      <point x="254.574912215" y="528.365512233" type="curve" smooth="yes"/>
      <point x="230.250846121" y="517.756692243"/>
      <point x="212.30947699" y="502.72899299"/>
      <point x="196.748717573" y="490.288034469" type="curve"/>
      <point x="193.814620408" y="490.288034469" type="line"/>
      <point x="195.062471967" y="532.0" type="line"/>
      <point x="52.3820085233" y="532.0" type="line"/>
    </contour>
    <contour>
      <point x="195.062471967" y="386.974834606" type="line"/>
      <point x="210.425227098" y="407.439326115"/>
      <point x="227.977389956" y="421.510186649"/>
      <point x="245.241706209" y="430.224131508" type="curve" smooth="yes"/>
      <point x="264.8708724" y="439.730219854"/>
      <point x="283.480217829" y="443.058061504"/>
      <point x="299.674749741" y="443.058061504" type="curve" smooth="yes"/>
      <point x="329.820141264" y="443.058061504"/>
      <point x="355.062599688" y="429.416468256"/>
      <point x="371.770681745" y="403.728193969" type="curve" smooth="yes"/>
      <point x="389.179576687" y="374.550243057"/>
      <point x="398.483415522" y="330.16579741"/>
      <point x="398.483415522" y="264.282532588" type="curve" smooth="yes"/>
      <point x="398.483415522" y="189.01822557"/>
      <point x="387.297949836" y="148.568536589"/>
      <point x="372.308047667" y="126.028901975" type="curve" smooth="yes"/>
      <point x="354.202941381" y="100.442293336"/>
      <point x="328.008538766" y="88.941938496"/>
      <point x="300.375322615" y="88.941938496" type="curve" smooth="yes"/>
      <point x="279.624738778" y="88.941938496"/>
      <point x="260.306340223" y="93.9656985035"/>
      <point x="243.245758965" y="103.020859794" type="curve" smooth="yes"/>
      <point x="224.784031959" y="112.719944387"/>
      <point x="208.203874065" y="126.308236571"/>
      <point x="195.062471967" y="144.108142243" type="curve"/>
    </contour>
  </outline>
</glyph>
<glyph name="q" format="1">
  <advance width="575.77536938"/>
  <unicode hex="0071"/>
  <outline>
    <contour>
      <point x="523.159836566" y="-248.0" type="line"/>
      <point x="523.159836566" y="531.766475709" type="line"/>
      <point x="380.479373122" y="531.766475709" type="line"/>
      <point x="381.137623692" y="491.000187864" type="line"/>
      <point x="378.793127516" y="491.000187864" type="line"/>
      <point x="364.399989556" y="503.085069688"/>
      <point x="344.453546419" y="517.864917381"/>
      <point x="319.784984149" y="528.599036524" type="curve" smooth="yes"/>
      <point x="296.889583579" y="538.187262742"/>
      <point x="269.968515233" y="544.0"/>
      <point x="239.339415009" y="544.0" type="curve" smooth="yes"/>
      <point x="184.106280578" y="544.0"/>
      <point x="130.373619261" y="525.503051407"/>
      <point x="90.747803547" y="480.436496632" type="curve" smooth="yes"/>
      <point x="53.0572169623" y="436.467718438"/>
      <point x="31.0001608937" y="367.212225604"/>
      <point x="31.0001608937" y="266.775069471" type="curve" smooth="yes"/>
      <point x="31.0001608937" y="181.434312512"/>
      <point x="49.1110062771" y="104.126764087"/>
      <point x="84.6934254627" y="57.1166848393" type="curve" smooth="yes"/>
      <point x="119.313454696" y="13.2911793254"/>
      <point x="170.59184045" y="-12.0"/>
      <point x="241.953251265" y="-12.0" type="curve" smooth="yes"/>
      <point x="263.805377044" y="-12.0"/>
      <point x="290.271396817" y="-9.28509985784"/>
      <point x="317.775617376" y="1.78844145629" type="curve" smooth="yes"/>
      <point x="338.457134939" y="9.48489281218"/>
      <point x="359.875098903" y="21.7781641482"/>
      <point x="378.849777088" y="37.7350000716" type="curve"/>
      <point x="380.479373122" y="37.7350000716" type="line"/>
      <point x="380.479373122" y="-248.0" type="line"/>
    </contour>
    <contour>
      <point x="380.479373122" y="144.108142243" type="line"/>
      <point x="367.175423573" y="126.308236571"/>
      <point x="350.866038268" y="112.953468678"/>
      <point x="332.543937683" y="103.764414472" type="curve" smooth="yes"/>
      <point x="315.591581564" y="93.9656985035"/>
      <point x="295.669254751" y="88.941938496"/>
      <point x="274.918670914" y="88.941938496" type="curve" smooth="yes"/>
      <point x="244.893562278" y="88.941938496"/>
      <point x="221.03165583" y="101.197188523"/>
      <point x="202.738094303" y="126.895009059" type="curve" smooth="yes"/>
      <point x="186.899399076" y="150.097968249"/>
      <point x="177.058429567" y="190.840997329"/>
      <point x="177.058429567" y="264.638609285" type="curve" smooth="yes"/>
      <point x="177.058429567" y="320.4425835"/>
      <point x="185.755593398" y="371.966249072"/>
      <point x="202.344109807" y="400.956404244" type="curve" smooth="yes"/>
      <point x="221.330785205" y="430.723716134"/>
      <point x="247.771846881" y="443.058061504"/>
      <point x="275.619243789" y="443.058061504" type="curve" smooth="yes"/>
      <point x="291.813775701" y="443.058061504"/>
      <point x="310.918824248" y="439.963744145"/>
      <point x="330.137591428" y="430.224131508" type="curve" smooth="yes"/>
      <point x="347.316603574" y="421.510186649"/>
      <point x="364.868766432" y="407.439326115"/>
      <point x="380.479373122" y="386.974834606" type="curve"/>
    </contour>
  </outline>
</glyph>
<glyph name="r" format="1">
  <advance width="403.448965296"/>
  <unicode hex="0072"/>
  <outline>
    <contour>
      <point x="194.048144699" y="478.222975375" type="line"/>
      <point x="195.295996258" y="532.0" type="line"/>
      <point x="52.6155328147" y="532.0" type="line"/>
      <point x="52.6155328147" y="0.0" type="line"/>
      <point x="195.295996258" y="0.0" type="line"/>
      <point x="195.295996258" y="358.719362164" type="line"/>
      <point x="214.135406756" y="382.555439941"/>
      <point x="233.252275836" y="401.377609938"/>
      <point x="252.18952345" y="414.817615972" type="curve" smooth="yes"/>
      <point x="275.602413408" y="430.653274261"/>
      <point x="294.584730073" y="436.795647429"/>
      <point x="312.205183559" y="436.795647429" type="curve" smooth="yes"/>
      <point x="326.344021182" y="436.795647429"/>
      <point x="339.193819702" y="433.869611027"/>
      <point x="351.447990741" y="428.592811945" type="curve" smooth="yes"/>
      <point x="360.924345561" y="423.999931211"/>
      <point x="369.360705337" y="418.204507979"/>
      <point x="376.110819506" y="411.402818244" type="curve"/>
      <point x="390.52473351" y="525.145671497" type="line"/>
      <point x="380.4587777" y="530.89071166"/>
      <point x="371.361840096" y="535.162436737"/>
      <point x="360.452165234" y="538.682013374" type="curve" smooth="yes"/>
      <point x="348.293686326" y="542.278833354"/>
      <point x="334.616583268" y="544.0"/>
      <point x="320.309884176" y="544.0" type="curve" smooth="yes"/>
      <point x="294.358968795" y="544.0"/>
      <point x="272.003920906" y="536.20159001"/>
      <point x="251.990622448" y="524.724995178" type="curve" smooth="yes"/>
      <point x="231.262423847" y="512.023469816"/>
      <point x="213.993213065" y="495.746251246"/>
      <point x="197.409295402" y="478.222975375" type="curve"/>
    </contour>
  </outline>
</glyph>
<glyph name="s" format="1">
  <advance width="478.288290735"/>
  <unicode hex="0073"/>
  <outline>
    <contour>
      <point x="432.97916123" y="421.886430898" type="line"/>
      <point x="425.265582884" y="456.314553228"/>
      <point x="405.870117666" y="484.551473571"/>
      <point x="376.697675207" y="505.088240528" type="curve" smooth="yes"/>
      <point x="342.679788199" y="529.66577554"/>
      <point x="297.537860503" y="544.0"/>
      <point x="239.4952684" y="544.0" type="curve" smooth="yes"/>
      <point x="174.692115698" y="544.0"/>
      <point x="130.414923111" y="530.476721334"/>
      <point x="94.697655727" y="506.076414563" type="curve" smooth="yes"/>
      <point x="57.8190333902" y="480.727683358"/>
      <point x="34.965952329" y="440.92390358"/>
      <point x="34.965952329" y="392.401943915" type="curve" smooth="yes"/>
      <point x="34.965952329" y="358.559303851"/>
      <point x="46.6472374398" y="325.706035753"/>
      <point x="69.9942273599" y="299.029462898" type="curve" smooth="yes"/>
      <point x="93.7218269953" y="271.010061625"/>
      <point x="129.816126598" y="252.125925243"/>
      <point x="181.652520731" y="234.751036041" type="curve" smooth="yes"/>
      <point x="232.240823292" y="218.917578509"/>
      <point x="263.707558337" y="206.979835085"/>
      <point x="280.408001913" y="191.1186783" type="curve" smooth="yes"/>
      <point x="296.756070822" y="177.309936058"/>
      <point x="305.051851689" y="158.343960382"/>
      <point x="305.051851689" y="140.843479041" type="curve" smooth="yes"/>
      <point x="305.051851689" y="116.992937298"/>
      <point x="299.285798265" y="98.5137649996"/>
      <point x="289.255661039" y="87.4197434233" type="curve" smooth="yes"/>
      <point x="275.756330244" y="73.6692655366"/>
      <point x="256.761185617" y="67.1978582196"/>
      <point x="235.844476832" y="67.1978582196" type="curve" smooth="yes"/>
      <point x="197.971663182" y="67.1978582196"/>
      <point x="170.783411593" y="88.3491758761"/>
      <point x="161.234357231" y="120.788593141" type="curve"/>
      <point x="27.8244209337" y="112.811701208" type="line"/>
      <point x="42.6249106109" y="71.7416210841"/>
      <point x="67.0347030968" y="37.7213304949"/>
      <point x="103.945853248" y="17.5375399671" type="curve" smooth="yes"/>
      <point x="138.821013567" y="-3.04262828237"/>
      <point x="184.225299568" y="-12.0"/>
      <point x="238.720190701" y="-12.0" type="curve" smooth="yes"/>
      <point x="305.221287803" y="-12.0"/>
      <point x="359.088976128" y="6.34174942961"/>
      <point x="395.7146729" y="36.6606913387" type="curve" smooth="yes"/>
      <point x="432.456835051" y="67.4951571285"/>
      <point x="450.928171637" y="107.851176087"/>
      <point x="450.928171637" y="156.577176727" type="curve" smooth="yes"/>
      <point x="450.928171637" y="200.424178321"/>
      <point x="436.501244601" y="232.327407202"/>
      <point x="413.7412884" y="255.751054492" type="curve" smooth="yes"/>
      <point x="388.886062353" y="283.181387775"/>
      <point x="348.787469983" y="302.904169204"/>
      <point x="293.759992137" y="321.808490066" type="curve" smooth="yes"/>
      <point x="238.430702168" y="341.183379267"/>
      <point x="217.998529877" y="349.3232457"/>
      <point x="200.666163008" y="363.101425636" type="curve" smooth="yes"/>
      <point x="183.979091416" y="374.556418438"/>
      <point x="173.889612815" y="391.267743052"/>
      <point x="173.889612815" y="408.701902071" type="curve" smooth="yes"/>
      <point x="173.889612815" y="428.173013605"/>
      <point x="180.860535995" y="442.466297933"/>
      <point x="190.702457992" y="451.445408378" type="curve" smooth="yes"/>
      <point x="202.808044302" y="460.30876592"/>
      <point x="221.124344587" y="464.80214178"/>
      <point x="240.413784596" y="464.80214178" type="curve" smooth="yes"/>
      <point x="278.795676145" y="464.80214178"/>
      <point x="300.847230333" y="439.631715837"/>
      <point x="308.44064127" y="413.94953401" type="curve"/>
    </contour>
  </outline>
</glyph>
<glyph name="t" format="1">
  <advance width="403.043193672"/>
  <unicode hex="0074"/>
  <outline>
    <contour>
      <point x="86.6687582243" y="532.0" type="line"/>
      <point x="19.5922219024" y="532.0" type="line"/>
      <point x="19.5922219024" y="442.506418652" type="line"/>
      <point x="86.6687582243" y="442.506418652" type="line"/>
      <point x="86.6687582243" y="173.714629383" type="line" smooth="yes"/>
      <point x="86.6687582243" y="37.3967898098"/>
      <point x="153.316499883" y="-12.0"/>
      <point x="264.775922686" y="-12.0" type="curve" smooth="yes"/>
      <point x="316.378260356" y="-12.0"/>
      <point x="359.009200255" y="3.55198338145"/>
      <point x="395.067858783" y="20.3513410947" type="curve"/>
      <point x="367.350099684" y="109.423955932" type="line"/>
      <point x="352.014033581" y="97.0960613067"/>
      <point x="325.552085146" y="81.1082511485"/>
      <point x="295.405025865" y="81.1082511485" type="curve" smooth="yes"/>
      <point x="251.878129879" y="81.1082511485"/>
      <point x="229.349221668" y="121.193449974"/>
      <point x="229.349221668" y="203.141867989" type="curve" smooth="yes"/>
      <point x="229.349221668" y="442.506418652" type="line"/>
      <point x="346.329402758" y="442.506418652" type="line"/>
      <point x="346.329402758" y="532.0" type="line"/>
      <point x="229.349221668" y="532.0" type="line"/>
      <point x="229.349221668" y="652.600403736" type="line"/>
      <point x="86.6687582243" y="652.600403736" type="line"/>
    </contour>
  </outline>
</glyph>
<glyph name="u" format="1">
  <advance width="592.789397598"/>
  <unicode hex="0075"/>
  <outline>
    <contour>
      <point x="48.8636243858" y="532.0" type="line"/>
      <point x="48.8636243858" y="177.277062817" type="line" smooth="yes"/>
      <point x="48.8636243858" y="110.318914626"/>
      <point x="62.1191701957" y="63.9872621997"/>
      <point x="87.2769318649" y="33.8068724869" type="curve" smooth="yes"/>
      <point x="113.474688579" y="3.2986411239"/>
      <point x="158.11752057" y="-12.0"/>
      <point x="211.162677815" y="-12.0" type="curve" smooth="yes"/>
      <point x="253.970624527" y="-12.0"/>
      <point x="293.634050289" y="-1.71591316402"/>
      <point x="327.006167428" y="15.2579390352" type="curve" smooth="yes"/>
      <point x="352.535103277" y="29.3069473316"/>
      <point x="374.890151166" y="48.0577210009"/>
      <point x="394.687350074" y="65.739003316" type="curve"/>
      <point x="399.330853888" y="65.739003316" type="line"/>
      <point x="397.849478037" y="0.0" type="line"/>
      <point x="540.421716342" y="0.0" type="line"/>
      <point x="540.421716342" y="532.0" type="line"/>
      <point x="397.849478037" y="532.0" type="line"/>
      <point x="397.849478037" y="164.416153604" type="line"/>
      <point x="380.342566502" y="143.355261603"/>
      <point x="357.606549944" y="126.820339245"/>
      <point x="335.850949841" y="115.600543256" type="curve" smooth="yes"/>
      <point x="312.846545691" y="103.822128073"/>
      <point x="287.190816976" y="97.3176517147"/>
      <point x="264.515446975" y="97.3176517147" type="curve" smooth="yes"/>
      <point x="237.310236849" y="97.3176517147"/>
      <point x="218.291684908" y="107.666799612"/>
      <point x="207.971191546" y="122.356504441" type="curve" smooth="yes"/>
      <point x="194.114047533" y="143.702132581"/>
      <point x="191.188011132" y="179.240756969"/>
      <point x="191.188011132" y="222.858593006" type="curve" smooth="yes"/>
      <point x="191.188011132" y="532.0" type="line"/>
    </contour>
  </outline>
</glyph>
<glyph name="v" format="1">
  <advance width="517.786478106"/>
  <unicode hex="0076"/>
  <outline>
    <contour>
      <point x="255.546415618" y="91.5984607734" type="line"/>
      <point x="239.656624848" y="175.795348724"/>
      <point x="224.295606239" y="250.984167682"/>
      <point x="207.946587638" y="323.563084866" type="curve" smooth="yes"/>
      <point x="160.309271349" y="532.0" type="line"/>
      <point x="5.83004092933" y="532.0" type="line"/>
      <point x="174.601959523" y="0.0" type="line"/>
      <point x="342.05921943" y="0.0" type="line"/>
      <point x="511.078989583" y="532.0" type="line"/>
      <point x="356.654081477" y="532.0" type="line"/>
      <point x="309.606366176" y="324.136031329" type="line" smooth="yes"/>
      <point x="292.414161522" y="234.079831033"/>
      <point x="278.31532174" y="176.44553853"/>
      <point x="261.773013905" y="91.5984607734" type="curve"/>
    </contour>
  </outline>
</glyph>
<glyph name="w" format="1">
  <advance width="813.204582831"/>
  <unicode hex="0077"/>
  <outline>
    <contour>
      <point x="409.28101715" y="422.362087376" type="line"/>
      <point x="421.850665284" y="341.318987298"/>
      <point x="433.762482336" y="284.866451051"/>
      <point x="446.634304343" y="214.151823504" type="curve" smooth="yes"/>
      <point x="490.019468078" y="0.0" type="line"/>
      <point x="662.516543554" y="0.0" type="line"/>
      <point x="804.879258272" y="532.0" type="line"/>
      <point x="667.895361821" y="532.0" type="line"/>
      <point x="622.321088109" y="320.181812186" type="line" smooth="yes"/>
      <point x="608.116769936" y="252.25457309"/>
      <point x="594.595950621" y="184.631835125"/>
      <point x="580.613816229" y="101.384332323" type="curve"/>
      <point x="575.144440388" y="101.384332323" type="line"/>
      <point x="562.463820369" y="180.332940998"/>
      <point x="549.039645672" y="250.151841446"/>
      <point x="535.700775082" y="317.173397901" type="curve" smooth="yes"/>
      <point x="492.386588187" y="532.0" type="line"/>
      <point x="320.715083523" y="532.0" type="line"/>
      <point x="277.278344222" y="317.671428278" type="line" smooth="yes"/>
      <point x="263.583396934" y="250.883396114"/>
      <point x="251.00294129" y="183.230449365"/>
      <point x="237.57017283" y="101.384332323" type="curve"/>
      <point x="232.100796989" y="101.384332323" type="line"/>
      <point x="218.762585899" y="183.546531017"/>
      <point x="204.706068421" y="255.724494922"/>
      <point x="191.268225956" y="317.370140925" type="curve" smooth="yes"/>
      <point x="145.554325822" y="532.0" type="line"/>
      <point x="8.10612753616" y="532.0" type="line"/>
      <point x="150.987466403" y="0.0" type="line"/>
      <point x="323.159446976" y="0.0" type="line"/>
      <point x="367.048907592" y="211.969748277" type="line" smooth="yes"/>
      <point x="380.006033707" y="281.282570576"/>
      <point x="391.837860668" y="338.498722274"/>
      <point x="404.122408944" y="422.362087376" type="curve"/>
    </contour>
  </outline>
</glyph>
<glyph name="y" format="1">
  <advance width="531.201420919"/>
  <unicode hex="0079"/>
  <outline>
    <contour>
      <point x="520.218924778" y="532.0" type="line"/>
      <point x="371.684533069" y="532.0" type="line"/>
      <point x="332.272730486" y="356.8756971" type="line" smooth="yes"/>
      <point x="318.782470681" y="298.990067832"/>
      <point x="304.405750032" y="239.716427585"/>
      <point x="291.425101126" y="163.465531528" type="curve"/>
      <point x="286.477096181" y="163.465531528" type="line"/>
      <point x="269.494542301" y="234.46350202"/>
      <point x="247.447518097" y="297.408527607"/>
      <point x="227.679087234" y="355.248847812" type="curve" smooth="yes"/>
      <point x="170.094721282" y="532.0" type="line"/>
      <point x="9.19936311045" y="532.0" type="line"/>
      <point x="226.811584981" y="19.651158081" type="line"/>
      <point x="207.192628004" y="-65.7654713871" type="line" smooth="yes"/>
      <point x="197.201168792" y="-99.4524424604"/>
      <point x="185.474215665" y="-124.749608295"/>
      <point x="171.630024148" y="-142.571245294" type="curve" smooth="yes"/>
      <point x="156.997810665" y="-161.206572038"/>
      <point x="139.025222522" y="-170.848587571"/>
      <point x="117.516403218" y="-170.848587571" type="curve" smooth="yes"/>
      <point x="101.20606263" y="-170.848587571"/>
      <point x="84.4261061906" y="-166.794924757"/>
      <point x="70.6031679467" y="-160.630290059" type="curve" smooth="yes"/>
      <point x="56.4408075316" y="-154.699179652"/>
      <point x="44.3984322527" y="-146.223777319"/>
      <point x="36.9512649666" y="-139.896595169" type="curve"/>
      <point x="2.65423779816" y="-229.873639614" type="line"/>
      <point x="19.7687246765" y="-238.790422753"/>
      <point x="37.684188815" y="-245.966637972"/>
      <point x="58.2727637904" y="-251.111871397" type="curve" smooth="yes"/>
      <point x="80.9759521459" y="-257.632582793"/>
      <point x="104.711314794" y="-261.0"/>
      <point x="131.322330777" y="-261.0" type="curve" smooth="yes"/>
      <point x="193.184407333" y="-261.0"/>
      <point x="235.828072868" y="-239.76671572"/>
      <point x="266.583609801" y="-211.476781869" type="curve" smooth="yes"/>
      <point x="300.523422716" y="-181.517676426"/>
      <point x="328.980134283" y="-122.622916774"/>
      <point x="349.562564493" y="-63.9311238712" type="curve" smooth="yes"/>
    </contour>
  </outline>
</glyph>
<glyph name="z" format="1">
  <advance width="426.877802738"/>
  <unicode hex="007A"/>
  <outline>
    <contour>
      <point x="390.597316746" y="532.0" type="line"/>
      <point x="39.0193751305" y="532.0" type="line"/>
      <point x="39.0193751305" y="442.506418652" type="line"/>
      <point x="223.204526494" y="442.506418652" type="line"/>
      <point x="27.8755164768" y="71.716426598" type="line"/>
      <point x="27.8755164768" y="0.0" type="line"/>
      <point x="405.202612214" y="0.0" type="line"/>
      <point x="405.202612214" y="89.4935813475" type="line"/>
      <point x="198.319462807" y="89.4935813475" type="line"/>
      <point x="390.597316746" y="460.158274249" type="line"/>
    </contour>
  </outline>
</glyph>
<glyph name="braceleft" format="1">
  <advance width="365.066547481"/>
  <unicode hex="007B"/>
  <outline>
    <contour>
      <point x="43.2966336847" y="244.412089129" type="line"/>
      <point x="65.6938903668" y="241.026938407"/>
      <point x="82.9165466125" y="235.42491792"/>
      <point x="95.2476680081" y="222.326661316" type="curve" smooth="yes"/>
      <point x="107.633111717" y="208.570154141"/>
      <point x="114.625050953" y="188.759744141"/>
      <point x="114.625050953" y="152.265065068" type="curve" smooth="yes"/>
      <point x="114.625050953" y="25.405779873" type="line" smooth="yes"/>
      <point x="114.625050953" y="-42.8985975521"/>
      <point x="131.444350498" y="-84.1535443967"/>
      <point x="160.40804449" y="-111.37464919" type="curve" smooth="yes"/>
      <point x="204.106689203" y="-150.189170512"/>
      <point x="276.396478956" y="-155.389805239"/>
      <point x="353.485580216" y="-155.877447594" type="curve"/>
      <point x="353.485580216" y="-60.3398156495" type="line"/>
      <point x="318.259648989" y="-60.0147207463"/>
      <point x="293.757866402" y="-53.2105772507"/>
      <point x="278.090309594" y="-35.7395894222" type="curve" smooth="yes"/>
      <point x="263.195494999" y="-18.5083923892"/>
      <point x="257.553365956" y="11.2871573439"/>
      <point x="257.553365956" y="57.0665855492" type="curve" smooth="yes"/>
      <point x="257.553365956" y="151.952909669" type="line" smooth="yes"/>
      <point x="257.553365956" y="205.01200001"/>
      <point x="244.092470368" y="239.207856514"/>
      <point x="219.928674646" y="260.618255525" type="curve" smooth="yes"/>
      <point x="197.902178088" y="279.310348147"/>
      <point x="168.124192589" y="288.202123008"/>
      <point x="133.09000178" y="290.410399011" type="curve"/>
      <point x="133.09000178" y="293.674905097" type="line"/>
      <point x="168.372044148" y="295.897508367"/>
      <point x="198.258254785" y="303.966157949"/>
      <point x="219.928674646" y="323.0" type="curve" smooth="yes"/>
      <point x="244.092470368" y="345.0"/>
      <point x="257.553365956" y="379.195856504"/>
      <point x="257.553365956" y="431.665345856" type="curve" smooth="yes"/>
      <point x="257.553365956" y="526.055966857" type="line" smooth="yes"/>
      <point x="257.553365956" y="572.424996051"/>
      <point x="263.35804245" y="601.468397344"/>
      <point x="278.090309594" y="618.862141828" type="curve" smooth="yes"/>
      <point x="292.945129144" y="636.008034754"/>
      <point x="318.259648989" y="643.137273153"/>
      <point x="353.485580216" y="643.462368056" type="curve"/>
      <point x="353.485580216" y="739.0" type="line"/>
      <point x="276.396478956" y="738.512357645"/>
      <point x="204.106689203" y="732.95564622"/>
      <point x="160.40804449" y="694.497201596" type="curve" smooth="yes"/>
      <point x="131.444350498" y="667.276096803"/>
      <point x="114.625050953" y="626.021149958"/>
      <point x="114.625050953" y="557.716772533" type="curve" smooth="yes"/>
      <point x="114.625050953" y="431.353190457" type="line" smooth="yes"/>
      <point x="114.625050953" y="395.092035675"/>
      <point x="107.633111717" y="375.048101384"/>
      <point x="95.2476680081" y="361.291594209" type="curve" smooth="yes"/>
      <point x="82.9165466125" y="348.193337605"/>
      <point x="65.6938903668" y="342.591317118"/>
      <point x="43.2966336847" y="339.454017955" type="curve"/>
    </contour>
  </outline>
</glyph>
<glyph name="bar" format="1">
  <advance width="331.10272748"/>
  <unicode hex="007C"/>
  <outline>
    <contour>
      <point x="117.112716676" y="-250.0" type="line"/>
      <point x="213.990010804" y="-250.0" type="line"/>
      <point x="213.990010804" y="750.0" type="line"/>
      <point x="117.112716676" y="750.0" type="line"/>
    </contour>
  </outline>
</glyph>
<glyph name="braceright" format="1">
  <advance width="365.066547481"/>
  <unicode hex="007D"/>
  <outline>
    <contour>
      <point x="321.769913796" y="339.454017955" type="line"/>
      <point x="299.480882252" y="342.591317118"/>
      <point x="282.150000868" y="348.193337605"/>
      <point x="269.818879472" y="361.291594209" type="curve" smooth="yes"/>
      <point x="257.077359066" y="375.048101384"/>
      <point x="250.08541983" y="395.092035675"/>
      <point x="250.08541983" y="431.353190457" type="curve" smooth="yes"/>
      <point x="250.08541983" y="557.716772533" type="line" smooth="yes"/>
      <point x="250.08541983" y="626.021149958"/>
      <point x="233.266120285" y="667.276096803"/>
      <point x="204.302426292" y="694.497201596" type="curve" smooth="yes"/>
      <point x="160.959858278" y="733.311722918"/>
      <point x="86.1775316412" y="738.512357645"/>
      <point x="11.2248905669" y="739.0" type="curve"/>
      <point x="11.2248905669" y="643.462368056" type="line"/>
      <point x="47.1629751893" y="643.137273153"/>
      <point x="72.1214183361" y="636.008034754"/>
      <point x="86.6201611887" y="618.862141828" type="curve" smooth="yes"/>
      <point x="101.460653471" y="601.468397344"/>
      <point x="107.513181524" y="572.424996051"/>
      <point x="107.513181524" y="526.055966857" type="curve" smooth="yes"/>
      <point x="107.513181524" y="431.665345856" type="line" smooth="yes"/>
      <point x="107.513181524" y="379.195856504"/>
      <point x="121.082302251" y="345.0"/>
      <point x="145.137872834" y="323.0" type="curve" smooth="yes"/>
      <point x="166.452215997" y="303.966157949"/>
      <point x="196.446651773" y="295.897508367"/>
      <point x="231.976545701" y="293.674905097" type="curve"/>
      <point x="231.976545701" y="290.410399011" type="line"/>
      <point x="196.694503332" y="288.202123008"/>
      <point x="166.452215997" y="279.666424844"/>
      <point x="145.137872834" y="260.618255525" type="curve" smooth="yes"/>
      <point x="121.082302251" y="238.851779816"/>
      <point x="107.513181524" y="205.01200001"/>
      <point x="107.513181524" y="151.952909669" type="curve" smooth="yes"/>
      <point x="107.513181524" y="57.0665855492" type="line" smooth="yes"/>
      <point x="107.513181524" y="11.2871573439"/>
      <point x="101.623200922" y="-18.5083923892"/>
      <point x="86.6201611887" y="-35.7395894222" type="curve" smooth="yes"/>
      <point x="71.308681078" y="-53.2105772507"/>
      <point x="47.1629751893" y="-60.0147207463"/>
      <point x="11.2248905669" y="-60.3398156495" type="curve"/>
      <point x="11.2248905669" y="-155.877447594" type="line"/>
      <point x="86.1775316412" y="-155.389805239"/>
      <point x="160.959858278" y="-149.833093814"/>
      <point x="204.302426292" y="-111.37464919" type="curve" smooth="yes"/>
      <point x="233.266120285" y="-84.1535443967"/>
      <point x="250.08541983" y="-42.8985975521"/>
      <point x="250.08541983" y="25.405779873" type="curve" smooth="yes"/>
      <point x="250.08541983" y="152.265065068" type="line" smooth="yes"/>
      <point x="250.08541983" y="188.759744141"/>
      <point x="257.077359066" y="208.570154141"/>
      <point x="269.818879472" y="222.326661316" type="curve" smooth="yes"/>
      <point x="282.150000868" y="235.42491792"/>
      <point x="299.480882252" y="241.026938407"/>
      <point x="321.769913796" y="244.412089129" type="curve"/>
    </contour>
  </outline>
</glyph>
<glyph name="paragraph" format="1">
  <advance width="578.658307651"/>
  <unicode hex="00B6"/>
  <outline>
    <contour>
      <point x="227.596144241" y="-143.381620769" type="line"/>
      <point x="318.10888685" y="-143.381620769" type="line"/>
      <point x="318.10888685" y="642.991066848" type="line"/>
      <point x="387.612724949" y="642.991066848" type="line"/>
      <point x="387.612724949" y="-143.381620769" type="line"/>
      <point x="478.373319118" y="-143.381620769" type="line"/>
      <point x="478.373319118" y="709.0" type="line"/>
      <point x="243.491632156" y="709.0" type="line" smooth="yes"/>
      <point x="166.608827098" y="709.0"/>
      <point x="117.751387303" y="690.50662414"/>
      <point x="82.7439330639" y="653.456481084" type="curve" smooth="yes"/>
      <point x="44.8247091567" y="613.942215669"/>
      <point x="27.7869278597" y="560.937561152"/>
      <point x="27.7869278597" y="503.20798022" type="curve" smooth="yes"/>
      <point x="27.7869278597" y="441.488314847"/>
      <point x="47.1958255977" y="390.665609055"/>
      <point x="81.4415163838" y="354.820515231" type="curve" smooth="yes"/>
      <point x="117.370706029" y="317.562695138"/>
      <point x="168.21942556" y="297.655218237"/>
      <point x="227.596144241" y="297.005561429" type="curve"/>
    </contour>
  </outline>
</glyph>
<glyph name="endash" format="1">
  <advance width="454.894769503"/>
  <unicode hex="2013"/>
  <outline>
    <contour>
      <point x="20.7560271515" y="309.243290988" type="line"/>
      <point x="20.7560271515" y="188.987906045" type="line"/>
      <point x="434.138742351" y="188.987906045" type="line"/>
      <point x="434.138742351" y="309.243290988" type="line"/>
    </contour>
  </outline>
</glyph>
<glyph name="emdash" format="1">
  <advance width="910.308163155"/>
  <unicode hex="2014"/>
  <outline>
    <contour>
      <point x="19.0103852266" y="309.243290988" type="line"/>
      <point x="19.0103852266" y="188.987906045" type="line"/>
      <point x="889.196059306" y="188.987906045" type="line"/>
      <point x="889.196059306" y="309.243290988" type="line"/>
    </contour>
  </outline>
</glyph>
<glyph name="bullet" format="1">
  <advance width="387.133388155"/>
  <unicode hex="2022"/>
  <outline>
    <contour>
      <point x="193.690619857" y="470.341048986" type="line"/>
      <point x="121.850923773" y="470.341048986"/>
      <point x="64.101719312" y="412.235767827"/>
      <point x="64.101719312" y="341.0" type="curve" smooth="yes"/>
      <point x="64.101719312" y="269.516380613"/>
      <point x="121.850923773" y="211.411099455"/>
      <point x="193.690619857" y="211.411099455" type="curve" smooth="yes"/>
      <point x="264.926387685" y="211.411099455"/>
      <point x="322.675592146" y="269.516380613"/>
      <point x="322.675592146" y="341.0" type="curve" smooth="yes"/>
      <point x="322.675592146" y="412.235767827"/>
      <point x="264.926387685" y="470.341048986"/>
      <point x="194.690619857" y="470.341048986" type="curve"/>
    </contour>
  </outline>
</glyph>
<glyph name="trademark" format="1">
  <advance width="887.91420807"/>
  <unicode hex="2122"/>
  <outline>
    <contour>
      <point x="305.468406664" y="709.0" type="line"/>
      <point x="23.303354048" y="709.0" type="line"/>
      <point x="23.303354048" y="646.34063703" type="line"/>
      <point x="117.286475987" y="646.34063703" type="line"/>
      <point x="117.286475987" y="353.467048583" type="line"/>
      <point x="211.129208028" y="353.467048583" type="line"/>
      <point x="211.129208028" y="646.34063703" type="line"/>
      <point x="305.468406664" y="646.34063703" type="line"/>
    </contour>
    <contour>
      <point x="569.387146341" y="447.588547342" type="line"/>
      <point x="556.73105934" y="498.980384057"/>
      <point x="542.029243788" y="542.299755651"/>
      <point x="527.242124127" y="584.590892197" type="curve" smooth="yes"/>
      <point x="483.649568114" y="709.0" type="line"/>
      <point x="335.478475557" y="709.0" type="line"/>
      <point x="335.478475557" y="353.467048583" type="line"/>
      <point x="423.637888215" y="353.467048583" type="line"/>
      <point x="423.637888215" y="491.573858807" type="line" smooth="yes"/>
      <point x="423.637888215" y="537.855322602"/>
      <point x="422.786108399" y="584.75736918"/>
      <point x="421.837683966" y="640.188781452" type="curve"/>
      <point x="424.635141469" y="640.188781452" type="line"/>
      <point x="440.546900782" y="585.167768191"/>
      <point x="456.749493458" y="538.607471043"/>
      <point x="472.704234575" y="491.488554699" type="curve" smooth="yes"/>
      <point x="519.563383921" y="353.467048583" type="line"/>
      <point x="617.704464099" y="353.467048583" type="line"/>
      <point x="665.019321518" y="491.411311355" type="line" smooth="yes"/>
      <point x="681.221914195" y="537.69277515"/>
      <point x="697.94313102" y="584.75736918"/>
      <point x="713.854890333" y="640.188781452" type="curve"/>
      <point x="717.048419579" y="640.188781452" type="line"/>
      <point x="715.937447694" y="585.167768191"/>
      <point x="715.085667878" y="538.444923591"/>
      <point x="715.085667878" y="491.573858807" type="curve" smooth="yes"/>
      <point x="715.085667878" y="353.467048583" type="line"/>
      <point x="803.709801861" y="353.467048583" type="line"/>
      <point x="803.709801861" y="709.0" type="line"/>
      <point x="658.689077269" y="709.0" type="line"/>
      <point x="614.492592998" y="584.590892197" type="line" smooth="yes"/>
      <point x="600.209770219" y="543.299755651"/>
      <point x="585.493627399" y="499.390783068"/>
      <point x="571.868522192" y="447.588547342" type="curve"/>
    </contour>
  </outline>
</glyph>
<glyph name="fl" format="1">
  <advance width="619.537708632"/>
  <unicode hex="FB02"/>
  <outline>
    <contour>
      <point x="388.509360658" y="716.886901712" type="line"/>
      <point x="374.625833597" y="723.324873475"/>
      <point x="358.414884374" y="728.03266534"/>
      <point x="341.084129492" y="731.552241976" type="curve" smooth="yes"/>
      <point x="318.373664406" y="736.266300346"/>
      <point x="294.041424038" y="738.02471529"/>
      <point x="270.316993434" y="738.02471529" type="curve" smooth="yes"/>
      <point x="208.193637562" y="738.02471529"/>
      <point x="163.958645541" y="724.20224951"/>
      <point x="134.215050879" y="700.320273901" type="curve" smooth="yes"/>
      <point x="102.349379071" y="672.576186225"/>
      <point x="87.5928848879" y="626.361643718"/>
      <point x="87.5928848879" y="558.843858546" type="curve" smooth="yes"/>
      <point x="87.5928848879" y="532.0" type="line"/>
      <point x="28.9511512973" y="532.0" type="line"/>
      <point x="28.9511512973" y="442.506418652" type="line"/>
      <point x="87.5928848879" y="442.506418652" type="line"/>
      <point x="87.5928848879" y="0.0" type="line"/>
      <point x="230.11080088" y="0.0" type="line"/>
      <point x="230.11080088" y="442.506418652" type="line"/>
      <point x="446.295433753" y="442.506418652" type="line"/>
      <point x="446.295433753" y="532.0" type="line"/>
      <point x="230.11080088" y="532.0" type="line"/>
      <point x="230.11080088" y="561.137612701" type="line" smooth="yes"/>
      <point x="230.11080088" y="596.173746632"/>
      <point x="237.433679239" y="619.52039799"/>
      <point x="251.361857831" y="631.898859924" type="curve" smooth="yes"/>
      <point x="263.477832163" y="641.938432685"/>
      <point x="279.287271092" y="646.9187914"/>
      <point x="297.950996573" y="646.9187914" type="curve" smooth="yes"/>
      <point x="313.673938896" y="646.9187914"/>
      <point x="329.718036877" y="644.009409525"/>
      <point x="341.214563185" y="639.851223603" type="curve" smooth="yes"/>
      <point x="352.494219729" y="636.143431738"/>
      <point x="361.803905579" y="630.572519547"/>
      <point x="368.289513663" y="624.995340852" type="curve"/>
    </contour>
    <contour>
      <point x="563.209309947" y="0.0" type="line"/>
      <point x="563.209309947" y="727.0" type="line"/>
      <point x="420.884923201" y="727.0" type="line"/>
      <point x="420.884923201" y="0.0" type="line"/>
    </contour>
  </outline>
</glyph>
